<svg xmlns="http://www.w3.org/2000/svg" width="1694.493" height="773.985" viewBox="0 0 1270.87 580.489"><g data-name="Layer 1"><path d="m504.306 261.265 17.458 40.599 17.378-40.6h18.993l-25.378 59.207H510.69l-25.38-59.206zM580.682 320.471H562.9v-59.206h17.782z" fill="#12607e"/><clipPath id="a"><path transform="matrix(1 0 0 -1 0 580.489)" d="M0 580.489h1270.872V0H0z"/></clipPath><g clip-path="url(#a)"><path d="M619.799 306.092c8.972 0 14.145-5.582 14.145-15.224 0-9.641-5.173-15.224-14.145-15.224h-11.72v30.448zm0 14.379h-29.502v-59.206h29.502c20.772 0 32.734 10.742 32.734 29.603 0 18.862-11.962 29.603-32.734 29.603M677.504 261.265v22.414h27.48v-22.414h17.782v59.206h-17.782v-22.413h-27.48v22.413h-17.781v-59.206zM727.046 261.265h21.985l15.922 20.215 15.923-20.215h21.984l-29.016 36.793v22.413h-17.781v-22.413zM837.37 292.137l-6.468-15.14-6.547 15.14zm5.737-30.872 25.38 59.206h-18.995l-5.98-13.956h-25.299l-5.982 13.956h-18.993l25.38-59.206zM900.085 259.912c17.62 0 28.612 7.612 30.876 20.891h-18.59c-1.617-4.145-5.9-6.513-12.69-6.513-7.355 0-11.154 2.03-11.154 5.583 0 9.134 42.433-4.736 42.433 21.99 0 12.687-10.992 19.961-30.876 19.961-17.7 0-28.692-7.612-30.955-20.89h18.59c1.616 4.143 5.98 6.511 12.769 6.511 7.841 0 11.882-2.029 11.882-5.582 0-9.135-42.433 4.737-42.433-21.99 0-12.688 10.669-19.96 30.148-19.96M976.622 285.793c3.88 0 6.062-1.86 6.062-5.075 0-3.214-2.182-5.074-6.062-5.074h-20.206v10.149zm-37.988 34.678v-59.206h38.796c16.892 0 23.843 4.82 23.843 16.662 0 8.12-4.364 13.618-12.123 15.055 7.517 1.523 11.72 6.682 11.72 14.632v12.857h-18.59v-15.648c0-3.045-2.182-4.651-6.06-4.651h-19.804v20.299zM1027.376 320.471h-17.782v-59.206h17.782z" fill="#12607e"/><path d="M505.686 348.91v3.433h-7.15v22.907h-4.175v-22.907h-7.114v-3.433zM525.542 356.67c1.403 1.543 2.105 3.744 2.105 6.604v11.976h-4.139v-11.528c0-1.841-.46-3.265-1.379-4.272-.92-1.008-2.178-1.511-3.774-1.511-1.646 0-2.964.54-3.957 1.623-.992 1.082-1.488 2.668-1.488 4.756v10.932h-4.138v-27.608h4.138v11.565c.532-1.542 1.428-2.735 2.686-3.581 1.258-.846 2.71-1.27 4.356-1.27 2.322 0 4.186.772 5.59 2.314M546.213 360.494c-.496-.907-1.174-1.579-2.032-2.015a6.153 6.153 0 0 0-2.813-.652c-1.622 0-2.977.51-4.066 1.53-1.09 1.02-1.682 2.524-1.778 4.514h11.36c.049-1.344-.175-2.469-.671-3.377m4.7 5.316h-15.39c.073 2.115.64 3.682 1.707 4.702 1.064 1.02 2.383 1.53 3.956 1.53 1.38 0 2.547-.36 3.503-1.082.956-.722 1.543-1.68 1.76-2.873h4.429c-.267 1.442-.823 2.723-1.67 3.843-.848 1.12-1.948 1.996-3.304 2.63-1.355.634-2.867.951-4.536.951-1.937 0-3.65-.422-5.136-1.269-1.49-.845-2.657-2.063-3.503-3.656-.848-1.59-1.271-3.47-1.271-5.633 0-2.14.423-4.005 1.27-5.597.847-1.59 2.015-2.81 3.504-3.656 1.487-.846 3.199-1.268 5.136-1.268 1.959 0 3.67.416 5.136 1.25 1.464.833 2.589 1.977 3.376 3.432.785 1.455 1.18 3.078 1.18 4.868a10.1 10.1 0 0 1-.146 1.828M578.682 348.91v3.433h-10.998v8.17h9.074v3.283h-9.074v11.454h-4.138v-26.34zM588.592 358.871c-.896.498-1.615 1.263-2.16 2.295-.544 1.032-.817 2.294-.817 3.787 0 1.517.273 2.785.817 3.805.545 1.02 1.264 1.779 2.16 2.276a5.943 5.943 0 0 0 2.939.746 5.948 5.948 0 0 0 2.94-.746c.896-.497 1.616-1.256 2.16-2.276.545-1.02.817-2.288.817-3.805 0-1.493-.272-2.755-.816-3.787-.545-1.032-1.265-1.797-2.16-2.295a5.959 5.959 0 0 0-2.941-.746 5.954 5.954 0 0 0-2.94.746m8.168-3.171c1.548.846 2.759 2.065 3.63 3.656.87 1.592 1.307 3.457 1.307 5.597 0 2.163-.436 4.042-1.307 5.633-.871 1.593-2.082 2.811-3.63 3.656-1.55.847-3.291 1.269-5.228 1.269-1.935 0-3.671-.422-5.208-1.269-1.537-.845-2.747-2.07-3.63-3.675-.883-1.603-1.325-3.475-1.325-5.614 0-2.14.442-4.005 1.326-5.597.882-1.591 2.092-2.81 3.629-3.656 1.537-.846 3.273-1.268 5.208-1.268 1.937 0 3.679.422 5.228 1.268M624.128 354.692v20.558h-4.175v-4.478c-.508 1.518-1.391 2.693-2.65 3.526-1.258.833-2.722 1.25-4.392 1.25-2.322 0-4.186-.77-5.59-2.313-1.403-1.542-2.105-3.743-2.105-6.604v-11.939h4.139v11.491c0 1.866.459 3.302 1.378 4.31.92 1.007 2.178 1.511 3.776 1.511 1.645 0 2.964-.547 3.956-1.642.992-1.094 1.488-2.686 1.488-4.775v-10.895zM645.871 356.67c1.403 1.543 2.105 3.744 2.105 6.604v11.976h-4.137v-11.528c0-1.841-.46-3.265-1.38-4.272-.92-1.008-2.178-1.511-3.775-1.511-1.646 0-2.964.54-3.957 1.623-.992 1.082-1.488 2.668-1.488 4.756v10.932h-4.138v-20.558h4.138v4.515c.532-1.542 1.428-2.735 2.687-3.581 1.257-.846 2.71-1.27 4.355-1.27 2.323 0 4.187.772 5.59 2.314M657.687 359.972c-1.102 1.207-1.651 2.867-1.651 4.98 0 2.116.549 3.776 1.65 4.982 1.101 1.207 2.572 1.809 4.41 1.809 1.163 0 2.202-.28 3.123-.84.918-.56 1.645-1.348 2.178-2.368.531-1.02.798-2.213.798-3.582 0-1.343-.267-2.531-.798-3.563-.533-1.031-1.26-1.828-2.178-2.388-.92-.56-1.96-.84-3.123-.84-1.838 0-3.308.604-4.41 1.81m7.786-4.16c1.283.92 2.179 2.139 2.687 3.657v-11.827h4.173v27.608h-4.173v-4.775c-.508 1.518-1.404 2.736-2.687 3.656-1.282.92-2.83 1.38-4.645 1.38-1.743 0-3.298-.422-4.664-1.268-1.369-.845-2.44-2.064-3.213-3.657-.775-1.591-1.162-3.47-1.162-5.633 0-2.14.387-4.004 1.162-5.596.774-1.592 1.844-2.811 3.212-3.656 1.367-.846 2.922-1.27 4.664-1.27 1.816 0 3.364.462 4.646 1.382M682.188 359.972c-1.102 1.207-1.651 2.867-1.651 4.98 0 2.116.548 3.776 1.65 4.982 1.101 1.207 2.572 1.809 4.41 1.809 1.163 0 2.202-.28 3.123-.84.918-.56 1.645-1.348 2.178-2.368.531-1.02.798-2.213.798-3.582 0-1.343-.267-2.531-.798-3.563-.533-1.031-1.26-1.828-2.178-2.388-.92-.56-1.96-.84-3.123-.84-1.838 0-3.308.604-4.41 1.81m7.786-4.16c1.283.92 2.19 2.139 2.724 3.657v-4.776h4.136v20.557h-4.136v-4.775c-.534 1.518-1.442 2.736-2.724 3.656-1.282.92-2.83 1.38-4.645 1.38-1.743 0-3.298-.422-4.664-1.268-1.369-.845-2.44-2.064-3.213-3.657-.775-1.591-1.162-3.47-1.162-5.633 0-2.14.387-4.004 1.162-5.596.774-1.592 1.844-2.811 3.212-3.656 1.367-.846 2.922-1.27 4.664-1.27 1.816 0 3.364.462 4.646 1.382M711.862 371.557v3.693h-2.54c-2.13 0-3.746-.528-4.847-1.586-1.1-1.056-1.652-2.816-1.652-5.28v-10.072h-2.867v-3.62h2.867v-5.11h4.175v5.11h4.828v3.62h-4.828v10.148c0 1.169.212 1.978.635 2.425.423.448 1.167.672 2.232.672zM719.884 375.25h-4.138v-20.558h4.138zm-3.993-28.317c.484-.473 1.126-.709 1.923-.709.799 0 1.447.236 1.943.709.496.472.744 1.069.744 1.791 0 .721-.248 1.305-.744 1.753-.496.448-1.144.671-1.943.671-.797 0-1.439-.223-1.923-.671-.485-.448-.726-1.032-.726-1.753 0-.722.241-1.319.726-1.791M731.1 358.871c-.896.498-1.615 1.263-2.16 2.295-.544 1.032-.817 2.294-.817 3.787 0 1.517.273 2.785.817 3.805.545 1.02 1.264 1.779 2.16 2.276a5.943 5.943 0 0 0 2.939.746 5.948 5.948 0 0 0 2.94-.746c.896-.497 1.616-1.256 2.16-2.276.545-1.02.817-2.288.817-3.805 0-1.493-.272-2.755-.816-3.787-.545-1.032-1.265-1.797-2.16-2.295a5.959 5.959 0 0 0-2.941-.746 5.954 5.954 0 0 0-2.94.746m8.168-3.171c1.548.846 2.759 2.065 3.63 3.656.87 1.592 1.307 3.457 1.307 5.597 0 2.163-.436 4.042-1.307 5.633-.871 1.593-2.082 2.811-3.63 3.656-1.55.847-3.291 1.269-5.228 1.269-1.935 0-3.671-.422-5.208-1.269-1.537-.845-2.747-2.07-3.63-3.675-.883-1.603-1.325-3.475-1.325-5.614 0-2.14.442-4.005 1.326-5.597.882-1.591 2.092-2.81 3.629-3.656 1.537-.846 3.273-1.268 5.208-1.268 1.937 0 3.679.422 5.228 1.268M764.966 356.67c1.403 1.543 2.105 3.744 2.105 6.604v11.976h-4.137v-11.528c0-1.841-.46-3.265-1.38-4.272-.92-1.008-2.178-1.511-3.775-1.511-1.646 0-2.964.54-3.957 1.623-.992 1.082-1.488 2.668-1.488 4.756v10.932h-4.138v-20.558h4.138v4.515c.532-1.542 1.428-2.735 2.687-3.581 1.257-.846 2.71-1.27 4.355-1.27 2.323 0 4.187.772 5.59 2.314M786.31 351.242c-.653.61-.98 1.647-.98 3.115v.335h4.392v3.656h-4.391v16.902h-4.175v-16.902h-2.722v-3.656h2.722v-.67c0-2.512.714-4.397 2.14-5.653 1.429-1.256 3.57-1.81 6.426-1.66v3.73c-1.621-.074-2.76.194-3.412.803M799.269 358.871c-.896.498-1.615 1.263-2.16 2.295-.544 1.032-.817 2.294-.817 3.787 0 1.517.273 2.785.817 3.805.545 1.02 1.264 1.779 2.16 2.276a5.943 5.943 0 0 0 2.939.746 5.948 5.948 0 0 0 2.94-.746c.896-.497 1.616-1.256 2.16-2.276.545-1.02.817-2.288.817-3.805 0-1.493-.272-2.755-.816-3.787-.545-1.032-1.265-1.797-2.16-2.295a5.959 5.959 0 0 0-2.941-.746 5.954 5.954 0 0 0-2.94.746m8.168-3.171c1.548.846 2.759 2.065 3.63 3.656.87 1.592 1.307 3.457 1.307 5.597 0 2.163-.436 4.042-1.307 5.633-.871 1.593-2.082 2.811-3.63 3.656-1.55.847-3.291 1.269-5.228 1.269-1.935 0-3.671-.422-5.208-1.269-1.537-.845-2.747-2.07-3.63-3.675-.883-1.603-1.325-3.475-1.325-5.614 0-2.14.442-4.005 1.326-5.597.882-1.591 2.092-2.81 3.629-3.656 1.537-.846 3.273-1.268 5.208-1.268 1.937 0 3.679.422 5.228 1.268M823.407 355.532c1.258-.783 2.71-1.175 4.355-1.175v4.626h-1.234c-1.814 0-3.272.454-4.374 1.361-1.1.91-1.65 2.408-1.65 4.497v10.41h-4.139v-20.559h4.138v4.03a7.828 7.828 0 0 1 2.904-3.19M843.48 352.343v7.983h9.438v3.284h-9.438v8.17h10.525v3.47h-14.663v-26.34h14.663v3.433zM869.87 375.25l-4.9-7.275-4.285 7.275h-4.609l6.606-10.67-6.679-9.888h4.682l4.791 7.089 4.247-7.089h4.575l-6.607 10.372 6.861 10.186zM892.736 356.54c1.693 1.405 2.746 3.314 3.158 5.727h-4.39c-.244-1.293-.83-2.307-1.762-3.041s-2.1-1.101-3.503-1.101c-1.598 0-2.929.578-3.993 1.735-1.065 1.157-1.597 2.854-1.597 5.093 0 2.238.532 3.942 1.597 5.111 1.064 1.169 2.395 1.753 3.993 1.753 1.403 0 2.571-.373 3.503-1.119.931-.746 1.518-1.765 1.761-3.059h4.391c-.412 2.413-1.465 4.328-3.158 5.746-1.693 1.418-3.835 2.126-6.425 2.126-1.936 0-3.647-.422-5.136-1.269-1.488-.845-2.656-2.063-3.502-3.656-.848-1.591-1.27-3.47-1.27-5.633 0-2.14.422-4.005 1.27-5.597.846-1.591 2.014-2.81 3.502-3.656 1.49-.846 3.2-1.268 5.136-1.268 2.59 0 4.732.703 6.425 2.108M913.626 360.494c-.496-.907-1.174-1.579-2.032-2.015a6.154 6.154 0 0 0-2.814-.652c-1.621 0-2.976.51-4.065 1.53-1.089 1.02-1.682 2.524-1.778 4.514h11.361c.048-1.344-.176-2.469-.672-3.377m4.701 5.316h-15.39c.072 2.115.64 3.682 1.706 4.702 1.064 1.02 2.382 1.53 3.956 1.53 1.38 0 2.547-.36 3.503-1.082.956-.722 1.543-1.68 1.76-2.873h4.429c-.267 1.442-.823 2.723-1.67 3.843-.848 1.12-1.948 1.996-3.304 2.63-1.355.634-2.867.951-4.537.951-1.936 0-3.647-.422-5.135-1.269-1.489-.845-2.657-2.063-3.503-3.656-.848-1.59-1.271-3.47-1.271-5.633 0-2.14.423-4.005 1.271-5.597.846-1.59 2.014-2.81 3.503-3.656 1.488-.846 3.199-1.268 5.135-1.268 1.96 0 3.672.416 5.137 1.25 1.464.833 2.589 1.977 3.376 3.432.785 1.455 1.18 3.078 1.18 4.868a10.1 10.1 0 0 1-.146 1.828M926.604 375.25h-4.138v-27.608h4.138zM935.751 375.25h-4.138v-27.608h4.138zM954.498 360.494c-.496-.907-1.174-1.579-2.032-2.015a6.154 6.154 0 0 0-2.814-.652c-1.621 0-2.976.51-4.065 1.53-1.089 1.02-1.682 2.524-1.778 4.514h11.361c.048-1.344-.176-2.469-.672-3.377m4.701 5.316h-15.39c.072 2.115.64 3.682 1.706 4.702 1.064 1.02 2.382 1.53 3.956 1.53 1.38 0 2.547-.36 3.503-1.082.956-.722 1.543-1.68 1.76-2.873h4.429c-.267 1.442-.823 2.723-1.67 3.843-.848 1.12-1.948 1.996-3.304 2.63-1.355.634-2.867.951-4.537.951-1.936 0-3.647-.422-5.135-1.269-1.489-.845-2.657-2.063-3.503-3.656-.848-1.59-1.271-3.47-1.271-5.633 0-2.14.423-4.005 1.271-5.597.846-1.59 2.014-2.81 3.503-3.656 1.488-.846 3.199-1.268 5.135-1.268 1.96 0 3.672.416 5.137 1.25 1.464.833 2.589 1.977 3.376 3.432.785 1.455 1.18 3.078 1.18 4.868a10.1 10.1 0 0 1-.146 1.828M980.107 356.67c1.403 1.543 2.105 3.744 2.105 6.604v11.976h-4.137v-11.528c0-1.841-.46-3.265-1.38-4.272-.92-1.008-2.178-1.511-3.775-1.511-1.646 0-2.964.54-3.957 1.623-.992 1.082-1.488 2.668-1.488 4.756v10.932h-4.138v-20.558h4.138v4.515c.532-1.542 1.428-2.735 2.687-3.581 1.257-.846 2.71-1.27 4.355-1.27 2.323 0 4.187.772 5.59 2.314M1002.358 356.54c1.693 1.405 2.746 3.314 3.158 5.727h-4.39c-.244-1.293-.83-2.307-1.762-3.041s-2.1-1.101-3.503-1.101c-1.598 0-2.929.578-3.993 1.735-1.065 1.157-1.597 2.854-1.597 5.093 0 2.238.532 3.942 1.597 5.111 1.064 1.169 2.395 1.753 3.993 1.753 1.403 0 2.571-.373 3.503-1.119.931-.746 1.518-1.765 1.761-3.059h4.391c-.412 2.413-1.465 4.328-3.158 5.746-1.693 1.418-3.835 2.126-6.425 2.126-1.936 0-3.647-.422-5.136-1.269-1.488-.845-2.656-2.063-3.502-3.656-.848-1.591-1.27-3.47-1.27-5.633 0-2.14.422-4.005 1.27-5.597.846-1.591 2.014-2.81 3.502-3.656 1.49-.846 3.2-1.268 5.136-1.268 2.59 0 4.732.703 6.425 2.108M1023.248 360.494c-.496-.907-1.174-1.579-2.032-2.015a6.154 6.154 0 0 0-2.814-.652c-1.621 0-2.976.51-4.065 1.53-1.089 1.02-1.682 2.524-1.778 4.514h11.361c.048-1.344-.176-2.469-.672-3.377m4.701 5.316h-15.39c.072 2.115.64 3.682 1.706 4.702 1.064 1.02 2.382 1.53 3.956 1.53 1.38 0 2.547-.36 3.503-1.082.956-.722 1.543-1.68 1.76-2.873h4.429c-.267 1.442-.823 2.723-1.67 3.843-.848 1.12-1.948 1.996-3.304 2.63-1.355.634-2.867.951-4.537.951-1.936 0-3.647-.422-5.135-1.269-1.489-.845-2.657-2.063-3.503-3.656-.848-1.59-1.271-3.47-1.271-5.633 0-2.14.423-4.005 1.271-5.597.846-1.59 2.014-2.81 3.503-3.656 1.488-.846 3.199-1.268 5.135-1.268 1.96 0 3.672.416 5.137 1.25 1.464.833 2.589 1.977 3.376 3.432.785 1.455 1.18 3.078 1.18 4.868a10.1 10.1 0 0 1-.146 1.828" fill="#e72425"/><path d="M301.268 243.7c-4.216 3.565-5.169 9.372-5.169 9.372s5.885.026 10.101-3.54c4.217-3.564 5.17-9.371 5.17-9.371s-5.885-.026-10.102 3.539M324.787 381.793c3.34 4.635 3.352 9.96 3.305 9.976.01.067-7.29-2.274-10.415-7.364-3.128-5.028-1.323-10.05-1.373-10.037.018.049 5.145 2.832 8.483 7.425" fill="#12607e"/><path d="M319.034 397.19c6.517-.855 9.116-5.661 9.114-5.618-.078.02-6.941-2.242-12.947-1.764-6.066.509-9.755 4.126-9.757 4.167-.086.015 7 4.096 13.59 3.216M312.197 375.687c2.226 5.029 1.166 10.159 1.12 10.166.005.068-6.36-3.394-8.341-8.836-1.993-5.382.673-9.935.627-9.931.01.052 4.365 3.615 6.594 8.6" fill="#12607e"/><path d="M303.755 389.58c6.295.258 9.66-3.95 9.653-3.905-.07.008-6.038-3.31-11.829-3.857-5.849-.53-10.069 2.34-10.076 2.38-.08.003 5.89 5.138 12.252 5.383M301.43 367.664c1.174 5.242-.832 10.016-.873 10.017-.006.067-5.4-4.352-6.303-9.965-.916-5.553 2.483-9.51 2.441-9.512.001.052 3.554 4.257 4.735 9.46" fill="#12607e"/><path d="M290.725 379.665c5.968 1.314 9.963-2.183 9.952-2.141-.064-.002-5.106-4.216-10.58-5.74-5.53-1.513-10.14.54-10.15.577-.075-.01 4.746 5.992 10.778 7.304M292.553 358.04c.185 5.29-2.636 9.57-2.673 9.562-.013.067-4.41-5.146-4.294-10.758.096-5.555 4.092-8.816 4.053-8.825-.007.051 2.716 4.77 2.914 10.021" fill="#12607e"/><path d="M280.02 367.832c5.535 2.305 10.021-.4 10.005-.362-.058-.011-4.148-4.962-9.199-7.398-5.102-2.432-9.959-1.243-9.974-1.208-.068-.021 3.572 6.655 9.168 8.968M285.632 347.133c-.74 5.185-4.242 8.85-4.277 8.838-.02.063-3.385-5.774-2.316-11.231 1.044-5.404 5.5-7.887 5.464-7.9-.016.048 1.85 5.143 1.13 10.293" fill="#12607e"/><path d="M271.712 354.47c4.995 3.213 9.829 1.363 9.808 1.398-.052-.02-3.162-5.55-7.685-8.819-4.568-3.273-9.521-2.974-9.541-2.942-.063-.03 2.366 7.132 7.418 10.362M280.733 335.26c-1.597 4.94-5.647 7.897-5.68 7.88-.028.058-2.33-6.236-.371-11.394 1.924-5.113 6.699-6.758 6.666-6.777-.023.047.956 5.383-.615 10.292" fill="#12607e"/><path d="M265.877 339.965c4.344 4.026 9.38 3.073 9.355 3.104-.047-.03-2.149-5.98-6.032-9.988-3.924-4.023-8.826-4.617-8.85-4.586-.056-.04 1.13 7.418 5.527 11.47M277.919 322.743c-2.387 4.57-6.845 6.743-6.873 6.722-.038.053-1.242-6.534 1.535-11.264 2.736-4.692 7.688-5.462 7.659-5.487-.03.044.034 5.488-2.321 10.03" fill="#12607e"/><path d="M262.59 324.709c3.583 4.732 8.672 4.69 8.643 4.719-.04-.036-1.11-6.251-4.24-10.896-3.172-4.663-7.868-6.131-7.897-6.106-.05-.048-.138 7.518 3.494 12.283M277.258 309.902c-3.105 4.088-7.83 5.425-7.855 5.4-.047.048-.124-6.665 3.402-10.853 3.481-4.153 8.462-4.035 8.437-4.063-.039.038-.916 5.452-3.984 9.516" fill="#12607e"/><path d="M261.926 309.092c2.709 5.315 7.7 6.183 7.665 6.206-.033-.042-.04-6.36-2.31-11.523-2.304-5.187-6.638-7.485-6.672-7.465-.043-.055-1.436 7.428 1.317 12.782M278.816 297.057c-3.753 3.506-8.603 3.98-8.623 3.952-.055.04 1.03-6.628 5.232-10.171 4.153-3.517 9.016-2.516 8.994-2.546-.048.03-1.894 5.279-5.603 8.765" fill="#12607e"/><path d="M263.96 293.508c1.719 5.762 6.458 7.513 6.42 7.532-.026-.047 1.055-6.313-.238-11.86-1.323-5.575-5.137-8.644-5.176-8.63-.036-.06-2.768 7.152-1.006 12.958M282.66 284.534c-4.328 2.836-9.153 2.44-9.17 2.41-.064.03 2.212-6.425 7.021-9.233 4.751-2.79 9.342-.938 9.326-.972-.058.024-2.902 4.97-7.178 7.795" fill="#12607e"/><path d="M268.767 278.35c.613 6.058 4.944 8.645 4.9 8.658-.02-.05 2.178-6.106 1.978-11.891-.225-5.82-3.357-9.571-3.4-9.561-.03-.064-4.13 6.685-3.478 12.794M288.854 272.656c-4.825 2.094-9.478.846-9.49.812-.074.022 3.427-6.054 8.767-8.052 5.273-1.988 9.441.663 9.427.628-.066.015-3.936 4.523-8.704 6.612" fill="#12607e"/><path d="M276.422 264.013c-.61 6.191 3.151 9.544 3.102 9.55-.012-.053 3.328-5.74 4.34-11.604.989-5.9-1.295-10.229-1.344-10.225-.022-.068-5.521 6.031-6.098 12.28M297.467 261.75c-5.247 1.293-9.573-.775-9.583-.81-.082.012 4.677-5.514 10.469-6.64 5.721-1.125 9.306 2.253 9.296 2.217-.074.005-4.999 3.935-10.182 5.233" fill="#12607e"/><path d="M287.002 250.892c-1.954 6.15 1.076 10.174 1.022 10.171-.004-.05 4.506-5.214 6.847-10.98 2.325-5.81 1.055-10.586 1.001-10.59-.015-.069-6.945 5.191-8.87 11.4" fill="#12607e"/><path d="m348.786 394.18-.06-1.144c-9.468.5-18.835-.904-27.84-4.174-8.776-3.186-16.829-7.998-23.94-14.302-14.753-13.083-23.9-31.303-25.756-51.307-1.52-16.38.12-30.866 4.874-43.051 5.103-13.086 13.694-23.153 25.535-29.921l-.568-.994c-12.074 6.9-20.833 17.163-26.034 30.499-4.819 12.354-6.483 27.013-4.946 43.573 1.882 20.294 11.164 38.78 26.137 52.057 7.218 6.4 15.396 11.286 24.307 14.52 9.15 3.324 18.67 4.752 28.291 4.244M419.681 243.7c4.217 3.565 5.169 9.372 5.169 9.372s-5.884.026-10.101-3.54c-4.217-3.564-5.169-9.371-5.169-9.371s5.884-.026 10.101 3.539M396.162 381.793c-3.34 4.635-3.353 9.96-3.305 9.976-.01.067 7.29-2.274 10.415-7.364 3.127-5.028 1.323-10.05 1.372-10.037-.017.049-5.145 2.832-8.482 7.425" fill="#12607e"/><path d="M401.916 397.19c-6.517-.855-9.116-5.661-9.114-5.618.078.02 6.94-2.242 12.947-1.764 6.066.509 9.755 4.126 9.757 4.167.086.015-7.001 4.096-13.59 3.216M408.753 375.687c-2.227 5.029-1.167 10.159-1.12 10.166-.005.068 6.36-3.394 8.341-8.836 1.993-5.382-.674-9.935-.63-9.931-.008.052-4.362 3.615-6.59 8.6" fill="#12607e"/><path d="M417.195 389.58c-6.296.258-9.66-3.95-9.654-3.905.07.008 6.038-3.31 11.83-3.857 5.849-.53 10.069 2.34 10.075 2.38.082.003-5.89 5.138-12.252 5.383M419.52 367.664c-1.175 5.242.83 10.016.872 10.017.004.067 5.4-4.352 6.302-9.965.917-5.553-2.482-9.51-2.44-9.512 0 .052-3.554 4.257-4.735 9.46" fill="#12607e"/><path d="M430.224 379.665c-5.968 1.314-9.963-2.183-9.953-2.141.065-.002 5.107-4.216 10.582-5.74 5.53-1.513 10.138.54 10.15.577.074-.01-4.747 5.992-10.779 7.304M428.396 358.04c-.185 5.29 2.634 9.57 2.673 9.562.013.067 4.41-5.146 4.293-10.758-.096-5.555-4.09-8.816-4.053-8.825.006.051-2.715 4.77-2.913 10.021" fill="#12607e"/><path d="M440.93 367.832c-5.536 2.305-10.022-.4-10.005-.362.058-.011 4.147-4.962 9.199-7.398 5.101-2.432 9.957-1.243 9.974-1.208.067-.021-3.572 6.655-9.168 8.968M435.317 347.133c.74 5.185 4.243 8.85 4.277 8.838.02.063 3.386-5.774 2.316-11.231-1.044-5.404-5.5-7.887-5.462-7.9.014.048-1.851 5.143-1.131 10.293" fill="#12607e"/><path d="M449.238 354.47c-4.995 3.213-9.83 1.363-9.81 1.398.054-.02 3.164-5.55 7.685-8.819 4.57-3.273 9.523-2.974 9.543-2.942.062-.03-2.367 7.132-7.418 10.362M440.217 335.26c1.597 4.94 5.647 7.897 5.68 7.88.028.058 2.328-6.236.371-11.394-1.925-5.113-6.699-6.758-6.666-6.777.023.047-.956 5.383.615 10.292" fill="#12607e"/><path d="M455.072 339.965c-4.343 4.026-9.38 3.073-9.354 3.104.046-.03 2.149-5.98 6.03-9.988 3.926-4.023 8.827-4.617 8.852-4.586.057-.04-1.131 7.418-5.528 11.47M443.03 322.743c2.387 4.57 6.845 6.743 6.873 6.722.038.053 1.242-6.534-1.533-11.264-2.738-4.692-7.689-5.462-7.66-5.487.031.044-.035 5.488 2.32 10.03" fill="#12607e"/><path d="M458.36 324.709c-3.583 4.732-8.673 4.69-8.644 4.719.04-.036 1.11-6.251 4.241-10.896 3.171-4.663 7.867-6.131 7.896-6.106.05-.048.138 7.518-3.494 12.283M443.69 309.902c3.108 4.088 7.833 5.425 7.857 5.4.046.048.123-6.665-3.403-10.853-3.48-4.153-8.462-4.035-8.436-4.063.039.038.916 5.452 3.983 9.516" fill="#12607e"/><path d="M459.024 309.092c-2.71 5.315-7.702 6.183-7.666 6.206.034-.042.04-6.36 2.31-11.523 2.305-5.187 6.639-7.485 6.673-7.465.043-.055 1.435 7.428-1.317 12.782M442.133 297.057c3.753 3.506 8.603 3.98 8.623 3.952.055.04-1.029-6.628-5.234-10.171-4.15-3.517-9.014-2.516-8.992-2.546.048.03 1.895 5.279 5.603 8.765" fill="#12607e"/><path d="M456.99 293.508c-1.72 5.762-6.458 7.513-6.42 7.532.026-.047-1.055-6.313.238-11.86 1.323-5.575 5.137-8.644 5.176-8.63.036-.06 2.766 7.152 1.006 12.958M438.29 284.534c4.326 2.836 9.151 2.44 9.168 2.41.064.03-2.212-6.425-7.02-9.233-4.752-2.79-9.343-.938-9.326-.972.057.024 2.901 4.97 7.177 7.795" fill="#12607e"/><path d="M452.183 278.35c-.613 6.058-4.944 8.645-4.9 8.658.019-.05-2.178-6.106-1.979-11.891.226-5.82 3.358-9.571 3.401-9.561.03-.064 4.129 6.685 3.478 12.794M432.095 272.656c4.825 2.094 9.478.846 9.49.812.074.022-3.427-6.054-8.766-8.052-5.274-1.988-9.441.663-9.428.628.066.015 3.936 4.523 8.704 6.612" fill="#12607e"/><path d="M444.528 264.013c.61 6.191-3.151 9.544-3.102 9.55.01-.053-3.328-5.74-4.34-11.604-.99-5.9 1.295-10.229 1.344-10.225.02-.068 5.52 6.031 6.098 12.28M423.483 261.75c5.247 1.293 9.572-.775 9.582-.81.082.012-4.676-5.514-10.469-6.64-5.72-1.125-9.304 2.253-9.296 2.217.075.005 5 3.935 10.183 5.233" fill="#12607e"/><path d="M433.947 250.892c1.954 6.15-1.076 10.174-1.022 10.171.005-.05-4.506-5.214-6.847-10.98-2.325-5.81-1.055-10.586-1-10.59.014-.069 6.944 5.191 8.87 11.4" fill="#12607e"/><path d="m372.163 394.18.06-1.144c9.47.5 18.835-.904 27.84-4.174 8.775-3.186 16.83-7.998 23.94-14.302 14.753-13.083 23.9-31.303 25.756-51.307 1.52-16.38-.12-30.866-4.874-43.051-5.103-13.086-13.694-23.153-25.535-29.921l.57-.994c12.072 6.9 20.831 17.163 26.032 30.499 4.818 12.354 6.482 27.013 4.946 43.573-1.882 20.294-11.164 38.78-26.137 52.057-7.218 6.4-15.395 11.286-24.307 14.52-9.15 3.324-18.669 4.752-28.29 4.244M361.092 303.48c.325-2.002 1.033-4.96 2.759-8.118 3.842-7.03 10.235-10.485 15.97-13.583a63.014 63.014 0 0 1 9.603-4.19c-.74 12.456-6.395 22.735-15.121 26.05-1.85.702-4.443 1.321-7.8 1.113a29.589 29.589 0 0 0 9.232-6.685 29.37 29.37 0 0 0 4.775-6.897 38.964 38.964 0 0 1-19.418 12.31M359.818 303.904c-.325-2.001-1.033-4.96-2.759-8.117-3.842-7.031-10.235-10.485-15.97-13.583a63.014 63.014 0 0 0-9.603-4.191c.74 12.457 6.395 22.736 15.121 26.05 1.85.703 4.443 1.322 7.8 1.114a29.589 29.589 0 0 1-9.232-6.685 29.37 29.37 0 0 1-4.775-6.897 38.964 38.964 0 0 0 19.418 12.309M361.781 295.15a35.346 35.346 0 0 1 4.297-6.208 35.462 35.462 0 0 1 3.98-3.926 37.826 37.826 0 0 0-9.843-19.949 49.601 49.601 0 0 0-10 19.843 19.952 19.952 0 0 1 5.836 5.094 19.823 19.823 0 0 1 2.76 4.88l1.007-19.948h.902zM368.652 273.874l3.82 9.908a35.26 35.26 0 0 0 5.65-10.545 18.093 18.093 0 0 1-1.711 7.441l6.327-3.54a103.823 103.823 0 0 0-1.074-17.19l-13.012 13.926M351.643 273.874l-3.82 9.908a35.26 35.26 0 0 1-5.65-10.545 18.093 18.093 0 0 0 1.711 7.441l-6.327-3.54a103.823 103.823 0 0 1 1.074-17.19l13.012 13.926M350.215 250.159l6.897 14.166-4.019 7.54-4.44-4.44a164.722 164.722 0 0 1 .461-6.88 9.077 9.077 0 0 0-1.287 5.637c-1.079-1.31-2.159-2.618-3.238-3.926a44.749 44.749 0 0 1 5.626-12.097M370.08 250.159l-6.897 14.166 4.02 7.54 4.44-4.44a164.722 164.722 0 0 0-.462-6.88 9.077 9.077 0 0 1 1.287 5.637l3.238-3.926a44.749 44.749 0 0 0-5.626-12.097M353.77 252.267l5.332 10.983v-13.649h1.632v13.65h1.432l4.377-11.103-6.008-10.227zM389.861 291.19c-.48-1.784-.718-3.93-.199-6.214.173-.76.618-2.364 3.939-7.162a93.599 93.599 0 0 1 3.98-5.332c.364.843 3.656 8.789-.637 15.04-1.187 1.73-2.655 2.893-3.939 3.669a16.996 16.996 0 0 0 2.666-5.618c.444-1.682.559-3.18.557-4.337a20.524 20.524 0 0 1-2.536 5.58 20.516 20.516 0 0 1-3.831 4.375" fill="#12607e"/><path d="M400.137 291.486c-.162-1.376-.106-2.994.528-4.632.21-.544.715-1.686 3.7-4.885a70.242 70.242 0 0 1 3.532-3.523c.178.665 1.757 6.917-2.107 11.09-1.07 1.152-2.284 1.856-3.321 2.292.76-.782 1.812-2.06 2.588-3.878.512-1.2.76-2.298.885-3.157a15.38 15.38 0 0 1-5.805 6.693M320.813 292.178c.162-1.376.106-2.994-.528-4.632-.21-.544-.715-1.686-3.7-4.885a70.242 70.242 0 0 0-3.532-3.523c-.178.665-1.757 6.917 2.107 11.089 1.069 1.153 2.284 1.857 3.32 2.293a12.754 12.754 0 0 1-2.587-3.878c-.512-1.2-.76-2.298-.885-3.157a15.38 15.38 0 0 0 5.805 6.693M317.755 280.216c.701-.732 1.381-1.702 1.733-2.938.117-.411.326-1.3-.007-4.484a51.73 51.73 0 0 0-.51-3.614c-.397.309-4.075 3.265-3.657 7.405a6.976 6.976 0 0 0 .928 2.803 9.342 9.342 0 0 1 .198-3.406c.23-.927.57-1.677.875-2.234a11.237 11.237 0 0 0 .44 6.468M402.922 280.607c-.7-.732-1.38-1.702-1.733-2.938-.118-.41-.326-1.3.007-4.484a51.73 51.73 0 0 1 .51-3.614c.397.31 4.075 3.265 3.657 7.405a6.976 6.976 0 0 1-.928 2.803 9.342 9.342 0 0 0-.198-3.406 9.276 9.276 0 0 0-.875-2.234 11.237 11.237 0 0 1-.44 6.468M323.574 270.082c.801-.656 1.61-1.556 2.12-2.766.168-.402.49-1.278.542-4.547a52.575 52.575 0 0 0-.072-3.727c-.44.265-4.534 2.81-4.619 7.058a7.122 7.122 0 0 0 .597 2.956 9.55 9.55 0 0 1 .62-3.43 9.462 9.462 0 0 1 1.161-2.156 11.498 11.498 0 0 0-.349 6.612M397.093 269.964c-.801-.656-1.61-1.556-2.12-2.766-.168-.402-.49-1.278-.542-4.547a52.575 52.575 0 0 1 .072-3.727c.44.265 4.534 2.81 4.619 7.058a7.122 7.122 0 0 1-.597 2.956 9.55 9.55 0 0 0-.62-3.43 9.462 9.462 0 0 0-1.161-2.156 11.498 11.498 0 0 1 .349 6.612M329.693 258.45c.498-.408 1-.967 1.317-1.72.105-.25.305-.794.338-2.827.01-.65.004-1.43-.045-2.317-.274.165-2.82 1.747-2.871 4.388a4.423 4.423 0 0 0 .37 1.838 5.895 5.895 0 0 1 1.107-3.473 7.145 7.145 0 0 0-.216 4.11M391.082 258.917c-.498-.408-1-.967-1.317-1.72-.105-.25-.305-.794-.337-2.827a32.74 32.74 0 0 1 .044-2.317c.274.165 2.82 1.747 2.872 4.388a4.423 4.423 0 0 1-.372 1.838 5.883 5.883 0 0 0-1.107-3.473 7.145 7.145 0 0 1 .217 4.11M343.853 246.316a2 2 0 0 0 .75-.61c.071-.098.214-.314.438-1.193.072-.28.15-.62.22-1.01-.136.043-1.404.467-1.7 1.608a1.987 1.987 0 0 0-.029.836 2.65 2.65 0 0 1 .84-1.393 3.16 3.16 0 0 0-.519 1.762M376.818 246.316a2 2 0 0 1-.75-.61c-.071-.098-.214-.314-.438-1.193a14.52 14.52 0 0 1-.22-1.01c.136.043 1.404.467 1.7 1.608.082.316.068.606.029.836a2.65 2.65 0 0 0-.84-1.393 3.16 3.16 0 0 1 .519 1.762M369.738 242.968a2 2 0 0 1-.75-.61c-.071-.098-.214-.314-.438-1.193a14.52 14.52 0 0 1-.22-1.01c.136.043 1.404.467 1.7 1.608.082.316.068.606.029.836a2.65 2.65 0 0 0-.84-1.393 3.16 3.16 0 0 1 .519 1.762M351.055 243.16a2 2 0 0 0 .75-.61c.071-.098.214-.314.438-1.193.072-.28.15-.62.22-1.01-.136.043-1.404.467-1.7 1.608a1.987 1.987 0 0 0-.029.836 2.65 2.65 0 0 1 .84-1.393 3.16 3.16 0 0 0-.519 1.762M363.887 243.637a2 2 0 0 1-.75-.61c-.071-.098-.214-.314-.438-1.193a14.52 14.52 0 0 1-.22-1.01c.136.042 1.404.466 1.7 1.607.082.316.068.607.028.837a2.623 2.623 0 0 0-.84-1.393 3.16 3.16 0 0 1 .52 1.762M356.763 243.742a2 2 0 0 0 .749-.61c.072-.098.215-.314.439-1.193.072-.28.15-.62.22-1.01-.136.043-1.404.467-1.7 1.608a1.969 1.969 0 0 0-.028.836 2.623 2.623 0 0 1 .839-1.393 3.16 3.16 0 0 0-.52 1.762M330.594 291.19c.48-1.784.718-3.93.199-6.214-.173-.76-.618-2.364-3.939-7.162a93.599 93.599 0 0 0-3.98-5.332c-.364.843-3.656 8.789.637 15.04 1.187 1.73 2.655 2.893 3.939 3.669a16.996 16.996 0 0 1-2.666-5.618 16.878 16.878 0 0 1-.557-4.337 20.524 20.524 0 0 0 2.536 5.58 20.516 20.516 0 0 0 3.831 4.375M333.641 275.964c.626-1.341 1.11-3.001 1.016-4.874-.03-.623-.16-1.951-2.116-6.194a75.33 75.33 0 0 0-2.4-4.756c-.405.614-4.1 6.426-1.579 11.951.697 1.528 1.694 2.649 2.6 3.438a13.49 13.49 0 0 1-1.166-8.298c.124 1.195.43 2.88 1.228 4.752a16.432 16.432 0 0 0 2.417 3.981M386.577 275.964c-.626-1.341-1.11-3.001-1.016-4.874.031-.623.16-1.951 2.116-6.194a75.33 75.33 0 0 1 2.401-4.756c.404.614 4.1 6.426 1.578 11.951-.697 1.528-1.694 2.649-2.6 3.438a13.49 13.49 0 0 0 1.166-8.298 16.449 16.449 0 0 1-1.228 4.752 16.432 16.432 0 0 1-2.417 3.981M384.33 262.664c-.604-.939-1.135-2.13-1.255-3.54-.04-.468-.079-1.474.952-4.844a56.764 56.764 0 0 1 1.31-3.799c.365.418 3.719 4.387 2.396 8.772a7.672 7.672 0 0 1-1.594 2.834 10.201 10.201 0 0 0 .028-6.32 12.381 12.381 0 0 1-1.838 6.897M335.89 262.342c.603-.94 1.134-2.13 1.254-3.54.04-.468.078-1.474-.952-4.844a56.764 56.764 0 0 0-1.31-3.8c-.366.419-3.719 4.388-2.396 8.773a7.672 7.672 0 0 0 1.594 2.834 10.21 10.21 0 0 1-.028-6.32 12.378 12.378 0 0 0 1.837 6.897M342.588 260.489c.615-.68 1.206-1.573 1.493-2.7.095-.374.261-1.183-.12-4.053a46.154 46.154 0 0 0-.553-3.255c-.35.29-3.602 3.055-3.119 6.787a6.308 6.308 0 0 0 .911 2.51 8.43 8.43 0 0 1 .092-3.083 8.386 8.386 0 0 1 .735-2.042 10.165 10.165 0 0 0 .561 5.836M346.808 251.163c.558-.426 1.127-1.017 1.501-1.825.124-.268.362-.854.474-3.069.036-.707.058-1.559.038-2.527-.305.169-3.138 1.798-3.295 4.675a4.827 4.827 0 0 0 .336 2.017 6.437 6.437 0 0 1 1.337-3.743 7.799 7.799 0 0 0-.39 4.472M352.38 249.651c.557-.426 1.126-1.017 1.5-1.825.124-.268.362-.854.474-3.069.036-.707.058-1.559.038-2.527-.305.169-3.138 1.798-3.295 4.675a4.827 4.827 0 0 0 .336 2.017 6.437 6.437 0 0 1 1.337-3.743 7.799 7.799 0 0 0-.39 4.472M368.01 249.396c-.52-.397-1.05-.947-1.397-1.7-.116-.25-.337-.795-.442-2.857a32.948 32.948 0 0 1-.036-2.353c.284.157 2.922 1.674 3.069 4.353a4.49 4.49 0 0 1-.313 1.878 5.996 5.996 0 0 0-1.245-3.486 7.266 7.266 0 0 1 .364 4.165M373.656 251.163c-.558-.426-1.127-1.017-1.5-1.825-.125-.268-.363-.854-.475-3.069a35.332 35.332 0 0 1-.038-2.527c.305.169 3.138 1.798 3.295 4.675a4.827 4.827 0 0 1-.336 2.017 6.437 6.437 0 0 0-1.337-3.743 7.799 7.799 0 0 1 .391 4.472M338.915 253.313c.514-.398 1.036-.95 1.376-1.7.113-.25.33-.795.417-2.846.028-.655.042-1.444.017-2.34-.28.159-2.893 1.688-3.017 4.353a4.48 4.48 0 0 0 .325 1.865 5.914 5.914 0 0 1 1.212-3.476 7.193 7.193 0 0 0-.33 4.144M381.86 252.9c-.514-.398-1.036-.95-1.376-1.7-.113-.25-.329-.795-.417-2.846a33.151 33.151 0 0 1-.017-2.34c.281.16 2.892 1.688 3.017 4.353a4.48 4.48 0 0 1-.325 1.865 5.914 5.914 0 0 0-1.212-3.476 7.193 7.193 0 0 1 .33 4.144M377.69 260.489c-.616-.68-1.207-1.573-1.493-2.7-.096-.374-.262-1.183.12-4.053.123-.917.296-2.016.553-3.255.35.29 3.6 3.055 3.118 6.787a6.308 6.308 0 0 1-.91 2.51 8.43 8.43 0 0 0-.092-3.083 8.386 8.386 0 0 0-.736-2.042 10.165 10.165 0 0 1-.56 5.836" fill="#12607e"/><path d="M367.037 313.484a6.562 6.562 0 1 1-13.124 0 6.562 6.562 0 0 1 13.124 0" fill="#e72425"/><path d="M380.54 320.01c.377-.208 4.311-2.471 4.661-6.77.345-4.232-2.992-7.925-3.85-7.634-.383.13-.382 1.082-.38 2.865.003 1.863.288 3.384.541 4.405a14.081 14.081 0 0 1-.973 7.135M386.917 315.714a10.822 10.822 0 0 0 4.27-5.621 25.213 25.213 0 0 0-.716-8.569 25.017 25.017 0 0 0-1.662-4.512c-.488-.14-.813-.05-.973.014-.797.315-1.278 1.497-1.027 2.904a31.701 31.701 0 0 1 .108 15.784M392.727 309.34l3.3-5.376c.344-.56.691-1.128.882-1.757.16-.529.205-1.085.248-1.636l.49-6.153c-.013.142-1.309.9-1.488 1.056-.5.437-.954.928-1.348 1.463-.802 1.09-1.189 2.452-1.533 3.754a22.402 22.402 0 0 0-.55 8.65M340.41 320.01c-.378-.208-4.312-2.471-4.662-6.77-.345-4.232 2.992-7.925 3.851-7.634.382.13.381 1.082.38 2.865a18.439 18.439 0 0 1-.542 4.405 14.081 14.081 0 0 0 .973 7.135M334.032 315.714a10.822 10.822 0 0 1-4.27-5.621 25.213 25.213 0 0 1 .716-8.569 25.017 25.017 0 0 1 1.662-4.512c.488-.14.813-.05.973.014.797.315 1.278 1.497 1.027 2.904a31.701 31.701 0 0 0-.108 15.784M328.222 309.34l-3.3-5.376c-.344-.56-.69-1.128-.882-1.757-.16-.529-.205-1.085-.249-1.636l-.488-6.153c.012.142 1.308.9 1.487 1.056.5.437.954.928 1.348 1.463.802 1.09 1.19 2.452 1.533 3.754.741 2.811.936 5.767.551 8.65" fill="#12607e"/><path d="M398.51 355.498c1.4.26 2.78.59 4.19.99-2.48-.25-4.87.18-7.26.79-.84.22-1.88-.3-2.82-.49-.48-.1-.96-.22-1.59-.37.4.37.79.74 1.16 1.1.16.02.32.02.48.03h-.45c.76.74 1.49 1.43 2.28 2.02.69.52 1.65.67 2.47 1.02.78.33 1.54.7 2.25 1.16-2.79-.18-5.38-.71-7.46-2.84-.7-.72-1.86-1.15-2.91-1.36H383.61c-.17.03-.35.08-.53.13-.59.16-1.32.06-1.98-.13h-.01c-3 0-6.01 0-9.01-.01 1.86 1.02 3.48 1.96 5.75 1.13 1.12-.42 2.78-.28 3.86.27 1.85.94 3.6.93 5.53.68 1.12-.14 2.29.1 3.38.37-1.55.23-3.1.41-4.64.7-1.67.31-3.2.34-4.88-.36-1.09-.46-2.54-.04-3.97-.01.82 2.26 2.1 3.06 3.99 2.69 1.53-.3 3.04-.73 4.57-1.1.18-.04.36-.08.55-.08 3.75-.16 6.8 1.25 9.21 4.09-2.44-2-5.28-2.89-8.35-3.14-.12.13-.25.26-.37.39.54.65 1.01 1.38 1.63 1.94 1.16 1.04 2.38 2.02 3.62 2.96.46.35 1.04.55 1.57.81l-.13.32c-.69-.35-1.39-.68-2.06-1.07-1.26-.73-2.5-1.49-3.74-2.26-.42-.26-.88-.54-1.15-.93-.76-1.08-1.7-1.31-2.92-.97-1.15.32-2.33.53-3.61.82.75 2.08 2.47 3.2 4.51 3.96 1.38.52 2.85.85 4.16 1.51.87.44 1.53 1.31 2.12 2.2-2.25-2.96-5.92-2.35-8.77-3.47.86 2.22 1.78 4.59 2.71 6.95-.06.03-.12.06-.18.08-.18-.25-.38-.49-.52-.77-1.19-2.44-2.1-5.06-3.63-7.26-1.15-1.66-2.15-3.71-4.33-4.47-.26-.09-.55-.19-.74-.38-1.53-1.53-3.48-1.19-5.31-1.1-1.6.08-2.93-.23-4-1.46-.34-.4-.76-.72-1.14-1.08-.14.14-.28.29-.42.43.96.9 1.81 1.99 2.91 2.64 1.77 1.04 3.77 1.42 5.86 1.56 1 .07 2.03.92 2.88 1.62.73.59 1.23 1.46 1.75 2.4-.6-.45-1.35-.79-1.77-1.36-.92-1.27-2.04-1.64-3.71-1.21.76.92 1.54 1.7 2.1 2.61.79 1.27 1.77 2.16 3.24 2.57.4.11.93.68.95 1.07.13 2.42 1.91 3.91 3.06 5.77-1.43-1.28-3.23-2.27-3.73-4.33-.32-1.31-.98-2.02-2.36-2.03-.34-.01-.68-.23-1.14-.4 0 .71-.09 1.35.02 1.96.26 1.48.85 2.94-.23 4.38-.17.23.18.85.3 1.29.18.74.37 1.47.36 2.25-.32-.68-.69-1.33-.95-2.03-.21-.56-.55-1.25-.38-1.72.65-1.8-.41-3.43-.34-5.13.1-2.63-1.52-4.29-3.22-5.82-.85-.75-2.13-1.02-3.43-1.41 3.55 3.85 5.91 8.05 4.44 13.4-1.02-2.27.47-5.26-1.78-7.47 0 .84.08 1.6-.02 2.32-.16 1.08-.33 2.18-.71 3.2-.62 1.65-.32 3.6.93 4.82.27.25.51.53.84.88-2.17-.74-3.82-4.07-2.73-5.91 1.02-1.72.59-3.43.29-4.97-.63-3.19-2.74-5.57-5.32-7.54.15 1.68.88 3.12 1.85 4.44 2.17 2.94 2.97 5.98.99 9.38-.5.88-.98 1.96-.93 2.91.05.92.8 1.79.97 2.85-.64-.98-1.41-1.9-1.89-2.95-.22-.48-.07-1.33.23-1.81 1.87-2.95 2-5.78-.22-8.63-.51-.66-.76-1.53-1.15-2.33-1.08 1.12-1.06 3.23.2 4.98.98 1.36 1.07 2.77.74 4.34-.02-1.79-1.19-3-1.94-4.44-.86-1.65-1.03-3.66-1.51-5.54-.33.42-.79.97-1.23 1.53-1.42 1.8-1.35 2.67.05 4.49 1.01 1.31 2.26 2.63 2.67 4.15.46 1.73.11 3.68.11 5.44-.36-1.81-.41-3.85-1.21-5.54-.82-1.74-2.37-3.12-3.98-4.68-.09.87-.43 1.79-.23 2.58.3 1.19 1.02 2.26 1.47 3.41.43 1.11.74 2.26.81 3.5-1.14-2.31-2.69-4.51-3.28-6.95-.51-2.13.25-4.43 1.68-6.38 1.02-1.37 1.71-2.98 2.55-4.48-.14-.11-.28-.22-.43-.34-.51.4-1.12.72-1.51 1.21-1.83 2.31-3.98 4.47-3.92 7.75.03 1.3-.17 2.5.48 3.86.89 1.87-.46 4.42-2.64 5.62.23-.27.43-.6.71-.82 1.58-1.19 1.37-2.82 1.04-4.43-.19-.98-.67-1.91-.82-2.9-.14-.95-.03-1.93-.03-3.26-.86 1.38-1.38 2.56-1.41 3.97-.02 1.36-.14 2.73-.37 4.08-.65-4.45-.68-5.73.26-7.35 1.26-2.18 2.67-4.26 3.99-6.33-2.94.52-6.53 3.43-6.43 7.09.02.85-.37 1.71-.53 2.57-.08.39-.21.86-.08 1.19.57 1.34.28 2.51-.46 3.69-.28.45-.37 1.02-.54 1.54l-.26-.06c.28-1.23.99-2.56.71-3.65-.31-1.24-.67-2.28-.22-3.57.27-.79.16-1.71.22-2.56-.2-.03-.24-.05-.29-.04-2.16.21-3.05 1.57-3.81 3.5-.53 1.31-1.97 2.25-3.25 3.16.38-.54.7-1.16 1.17-1.63 1.04-1.02 1.58-2.22 1.82-3.66.08-.55.58-1.3 1.06-1.46 1.43-.49 2.45-1.32 3.24-2.59.55-.89 1.32-1.64 2.1-2.59-1.52-.36-2.63-.26-3.54 1-.47.64-1.22 1.07-1.91 1.52 1.9-3.07 2.09-3.22 5.24-4.31 1.1-.37 1.91-.99 2.38-2.15.44-1.08 1.18-2.04 1.91-3.26-3.32 2.26-6.54 4.25-9.49 6.57-1.31 1.03-2.41 2.39-3.09 4.15-.92 2.4-2.43 4.57-3.86 6.76.92-2.32 1.84-4.64 2.74-6.9-2.79 1.11-6.41.53-8.7 3.44 1.02-2.08 2.9-2.95 4.93-3.33 1.9-.34 3.37-1.28 4.69-2.52.51-.48.79-1.19 1.14-1.76-1.37-.31-2.58-.53-3.77-.86-1.12-.31-1.94-.03-2.72.83-.46.51-1.16.79-1.75 1.17-1.01.65-2.02 1.3-3.02 1.95-.73.46-1.46.93-2.22 1.31 1.88-2.37 4.95-3.4 6.45-6.2-3.16-.04-5.91.9-8.57 3.04 2.55-3.5 6.98-4.92 10.67-3.78 1.4.43 2.89.65 4.35.8 1.5.17 2.55-.69 3.33-2.7-1.36-.07-2.79-.54-3.82-.1-1.81.78-3.48.72-5.3.39-1.46-.28-2.95-.4-4.49-.79 1.1-.11 2.23-.42 3.31-.29 2.01.25 3.87.39 5.79-.7 1.04-.6 2.51-.58 3.79-.59.87-.01 1.59-.21 2.18-.75-1.7.01-3.39.01-5.09.01-.03 0-.07.01-.1.01-.72.11-1.54.38-2.17.16-.19-.07-.37-.13-.56-.17h-5.13c-1.09.25-2.15.82-3.13 1.39-1.08.62-2.01 1.49-3.02 2.23-.22.16-.49.3-.75.33-1.26.16-2.53.27-3.61.38.6-.67 1.43-1.39 2.87-1.34.66.02 1.42-.62 2.01-1.1.7-.58 1.36-1.2 2.08-1.89h-.81c.29-.01.57-.03.86-.05.35-.34.72-.69 1.11-1.06-.74.19-1.31.29-1.84.48-1.7.61-3.33.68-4.95-.28-.43-.25-1.05-.2-1.58-.21-1.22-.03-2.43-.01-3.63-.22.9-.08 1.81-.08 2.69-.26 1.3-.26 2.49-.68 3.84.16.5.32 1.6-.11 2.34-.43 1.74-.73 3.46-.79 5.31-.41 1.12.23 2.2.38 3.24.45a11.36 11.36 0 0 0 2.78-2.05c1.77-1.79 2.84-4.19 3.3-6.66 1.02-5.49-.87-11.18-3.78-15.95-2.91-4.77-6.81-8.84-10.34-13.17-5.34-6.58-9.86-13.83-13.41-21.53.94-.93 2.59-.67 3.61.18 1.02.84 1.57 2.11 2.13 3.31 3.57 7.61 9 14.34 15.68 19.44 3.01 2.31 6.36 4.31 10.08 5.05 1.11.22 2.72-.08 2.67-1.22-.01-.38-.25-.72-.48-1.03-.96-1.31-1.99-2.57-3.08-3.78s-2.27-2.42-2.74-3.97c-.47-1.56.07-3.56 1.59-4.12 1.93 2.07 3.85 4.15 5.78 6.22.97 1.04 1.93 2.08 2.9 3.12.85.92 2.09 1.89 2.65 3.01 2.6 5.23 2.94 11.89 1.59 17.5-.45 1.87-1.09 3.7-1.54 5.57-.57 2.42-.8 4.9-.89 7.39 1.33.15 2.69.11 4.03.11.74.01 1.49.01 2.23 0 1.55.4 3.16.63 4.84.67.55.01 1.06-.05 1.53-.17-.08-2.69-.3-5.38-.91-8-.45-1.87-1.09-3.7-1.54-5.57-1.35-5.61-1.01-12.27 1.59-17.5.56-1.12 1.8-2.09 2.65-3.01.97-1.04 1.93-2.08 2.9-3.12 1.93-2.07 3.85-4.15 5.78-6.22 1.52.56 2.06 2.56 1.59 4.12-.47 1.55-1.65 2.76-2.74 3.97a48.369 48.369 0 0 0-3.08 3.78c-.23.31-.47.65-.48 1.03-.05 1.14 1.56 1.44 2.67 1.22 3.72-.74 7.07-2.74 10.08-5.05a52.776 52.776 0 0 0 15.68-19.44c.56-1.2 1.11-2.47 2.13-3.31 1.01-.85 2.67-1.11 3.61-.18-3.55 7.7-8.07 14.95-13.41 21.53-3.53 4.33-7.43 8.4-10.34 13.17-2.92 4.77-4.8 10.46-3.78 15.95.46 2.47 1.53 4.87 3.29 6.66.76.77 1.63 1.41 2.57 1.93h.01c1.29-.04 2.58-.2 3.84-.36 1.85-.24 3.6-.38 5.29.48 1.16.59 2.26.8 3.4-.03.24-.17.63-.24.91-.19" fill="#12607e"/></g></g></svg>