<?xml version="1.0" encoding="UTF-8"?>
<svg id="Layer_1" data-name="Layer 1" xmlns="http://www.w3.org/2000/svg" version="1.1" viewBox="0 0 1270.87 580.49">
  <defs>
    <style>
      .cls-1 {
        fill: #e52526;
      }

      .cls-1, .cls-2 {
        stroke-width: 0px;
      }

      .cls-2 {
        fill: #18607e;
      }
    </style>
  </defs>
  <g>
    <path class="cls-2" d="M504.31,261.26l17.46,40.6,17.38-40.6h18.99l-25.38,59.21h-22.07l-25.38-59.21h18.99Z"/>
    <path class="cls-2" d="M580.68,261.26v59.21h-17.78v-59.21h17.78Z"/>
    <path class="cls-2" d="M619.8,320.47h-29.5v-59.21h29.5c20.77,0,32.73,10.74,32.73,29.6s-11.96,29.6-32.73,29.6ZM619.8,306.09c8.97,0,14.14-5.58,14.14-15.22s-5.17-15.22-14.14-15.22h-11.72v30.45h11.72Z"/>
    <path class="cls-2" d="M677.5,261.26v22.41h27.48v-22.41h17.78v59.21h-17.78v-22.41h-27.48v22.41h-17.78v-59.21h17.78Z"/>
    <path class="cls-2" d="M727.05,261.26h21.99l15.92,20.21,15.92-20.21h21.98l-29.02,36.79v22.41h-17.78v-22.41l-29.02-36.79Z"/>
    <path class="cls-2" d="M843.11,261.26l25.38,59.21h-18.99l-5.98-13.96h-25.3l-5.98,13.96h-18.99l25.38-59.21h24.49ZM837.37,292.14l-6.47-15.14-6.55,15.14h13.01Z"/>
    <path class="cls-2" d="M900.08,259.91c17.62,0,28.61,7.61,30.88,20.89h-18.59c-1.62-4.14-5.9-6.51-12.69-6.51-7.35,0-11.15,2.03-11.15,5.58,0,9.13,42.43-4.74,42.43,21.99,0,12.69-10.99,19.96-30.88,19.96-17.7,0-28.69-7.61-30.96-20.89h18.59c1.62,4.14,5.98,6.51,12.77,6.51,7.84,0,11.88-2.03,11.88-5.58,0-9.13-42.43,4.74-42.43-21.99,0-12.69,10.67-19.96,30.15-19.96Z"/>
    <path class="cls-2" d="M938.63,320.47v-59.21h38.8c16.89,0,23.84,4.82,23.84,16.66,0,8.12-4.36,13.62-12.12,15.06,7.52,1.52,11.72,6.68,11.72,14.63v12.86h-18.59v-15.65c0-3.04-2.18-4.65-6.06-4.65h-19.8v20.3h-17.78ZM976.62,285.79c3.88,0,6.06-1.86,6.06-5.08s-2.18-5.07-6.06-5.07h-20.21v10.15h20.21Z"/>
    <path class="cls-2" d="M1027.38,261.26v59.21h-17.78v-59.21h17.78Z"/>
  </g>
  <g>
    <path class="cls-1" d="M505.69,348.91v3.43h-7.15v22.91h-4.17v-22.91h-7.11v-3.43h18.44Z"/>
    <path class="cls-1" d="M525.54,356.67c1.4,1.54,2.11,3.74,2.11,6.6v11.98h-4.14v-11.53c0-1.84-.46-3.26-1.38-4.27-.92-1.01-2.18-1.51-3.77-1.51s-2.96.54-3.96,1.62c-.99,1.08-1.49,2.67-1.49,4.76v10.93h-4.14v-27.61h4.14v11.57c.53-1.54,1.43-2.74,2.69-3.58s2.71-1.27,4.36-1.27c2.32,0,4.19.77,5.59,2.31Z"/>
    <path class="cls-1" d="M550.91,365.81h-15.39c.07,2.11.64,3.68,1.71,4.7,1.06,1.02,2.38,1.53,3.96,1.53,1.38,0,2.55-.36,3.5-1.08s1.54-1.68,1.76-2.87h4.43c-.27,1.44-.82,2.72-1.67,3.84-.85,1.12-1.95,2-3.3,2.63-1.36.63-2.87.95-4.54.95-1.94,0-3.65-.42-5.14-1.27-1.49-.84-2.66-2.06-3.5-3.66-.85-1.59-1.27-3.47-1.27-5.63s.42-4,1.27-5.6c.85-1.59,2.01-2.81,3.5-3.66,1.49-.85,3.2-1.27,5.14-1.27s3.67.42,5.14,1.25c1.46.83,2.59,1.98,3.38,3.43.79,1.46,1.18,3.08,1.18,4.87,0,.7-.05,1.31-.15,1.83ZM546.21,360.49c-.5-.91-1.17-1.58-2.03-2.01-.86-.43-1.8-.65-2.81-.65-1.62,0-2.98.51-4.07,1.53-1.09,1.02-1.68,2.52-1.78,4.51h11.36c.05-1.34-.18-2.47-.67-3.38Z"/>
    <path class="cls-1" d="M578.68,348.91v3.43h-11v8.17h9.07v3.28h-9.07v11.45h-4.14v-26.34h15.14Z"/>
    <path class="cls-1" d="M596.76,355.7c1.55.85,2.76,2.06,3.63,3.66s1.31,3.46,1.31,5.6-.44,4.04-1.31,5.63c-.87,1.59-2.08,2.81-3.63,3.66-1.55.85-3.29,1.27-5.23,1.27s-3.67-.42-5.21-1.27c-1.54-.84-2.75-2.07-3.63-3.67-.88-1.6-1.33-3.48-1.33-5.61s.44-4,1.33-5.6c.88-1.59,2.09-2.81,3.63-3.66,1.54-.85,3.27-1.27,5.21-1.27s3.68.42,5.23,1.27ZM588.59,358.87c-.9.5-1.62,1.26-2.16,2.29-.54,1.03-.82,2.29-.82,3.79s.27,2.79.82,3.8c.54,1.02,1.26,1.78,2.16,2.28.89.5,1.88.75,2.94.75s2.04-.25,2.94-.75c.9-.5,1.62-1.26,2.16-2.28.54-1.02.82-2.29.82-3.8s-.27-2.75-.82-3.79c-.54-1.03-1.26-1.8-2.16-2.29-.9-.5-1.88-.75-2.94-.75s-2.04.25-2.94.75Z"/>
    <path class="cls-1" d="M624.13,354.69v20.56h-4.17v-4.48c-.51,1.52-1.39,2.69-2.65,3.53-1.26.83-2.72,1.25-4.39,1.25-2.32,0-4.19-.77-5.59-2.31s-2.11-3.74-2.11-6.6v-11.94h4.14v11.49c0,1.87.46,3.3,1.38,4.31.92,1.01,2.18,1.51,3.78,1.51s2.96-.55,3.96-1.64c.99-1.09,1.49-2.69,1.49-4.78v-10.89h4.17Z"/>
    <path class="cls-1" d="M645.87,356.67c1.4,1.54,2.11,3.74,2.11,6.6v11.98h-4.14v-11.53c0-1.84-.46-3.26-1.38-4.27-.92-1.01-2.18-1.51-3.78-1.51s-2.96.54-3.96,1.62-1.49,2.67-1.49,4.76v10.93h-4.14v-20.56h4.14v4.51c.53-1.54,1.43-2.74,2.69-3.58,1.26-.85,2.71-1.27,4.36-1.27,2.32,0,4.19.77,5.59,2.31Z"/>
    <path class="cls-1" d="M665.47,355.81c1.28.92,2.18,2.14,2.69,3.66v-11.83h4.17v27.61h-4.17v-4.78c-.51,1.52-1.4,2.74-2.69,3.66-1.28.92-2.83,1.38-4.65,1.38s-3.3-.42-4.66-1.27c-1.37-.84-2.44-2.06-3.21-3.66-.77-1.59-1.16-3.47-1.16-5.63s.39-4,1.16-5.6,1.85-2.81,3.21-3.66,2.92-1.27,4.66-1.27,3.36.46,4.65,1.38ZM657.69,359.97c-1.1,1.21-1.65,2.87-1.65,4.98s.55,3.77,1.65,4.98c1.1,1.21,2.57,1.81,4.41,1.81,1.16,0,2.2-.28,3.12-.84.92-.56,1.65-1.35,2.18-2.37.53-1.02.8-2.21.8-3.58s-.27-2.53-.8-3.56c-.53-1.03-1.26-1.83-2.18-2.39-.92-.56-1.96-.84-3.12-.84-1.84,0-3.31.6-4.41,1.81Z"/>
    <path class="cls-1" d="M689.97,355.81c1.28.92,2.19,2.14,2.72,3.66v-4.78h4.14v20.56h-4.14v-4.78c-.53,1.52-1.44,2.74-2.72,3.66-1.28.92-2.83,1.38-4.65,1.38s-3.3-.42-4.66-1.27c-1.37-.84-2.44-2.06-3.21-3.66-.77-1.59-1.16-3.47-1.16-5.63s.39-4,1.16-5.6,1.85-2.81,3.21-3.66,2.92-1.27,4.66-1.27,3.36.46,4.65,1.38ZM682.19,359.97c-1.1,1.21-1.65,2.87-1.65,4.98s.55,3.77,1.65,4.98c1.1,1.21,2.57,1.81,4.41,1.81,1.16,0,2.2-.28,3.12-.84.92-.56,1.65-1.35,2.18-2.37.53-1.02.8-2.21.8-3.58s-.27-2.53-.8-3.56c-.53-1.03-1.26-1.83-2.18-2.39-.92-.56-1.96-.84-3.12-.84-1.84,0-3.31.6-4.41,1.81Z"/>
    <path class="cls-1" d="M711.86,371.56v3.69h-2.54c-2.13,0-3.75-.53-4.85-1.59-1.1-1.06-1.65-2.82-1.65-5.28v-10.07h-2.87v-3.62h2.87v-5.11h4.17v5.11h4.83v3.62h-4.83v10.15c0,1.17.21,1.98.63,2.42.42.45,1.17.67,2.23.67h2Z"/>
    <path class="cls-1" d="M715.89,346.93c.48-.47,1.13-.71,1.92-.71s1.45.24,1.94.71.74,1.07.74,1.79-.25,1.31-.74,1.75c-.5.45-1.14.67-1.94.67s-1.44-.22-1.92-.67c-.48-.45-.73-1.03-.73-1.75s.24-1.32.73-1.79ZM719.88,354.69v20.56h-4.14v-20.56h4.14Z"/>
    <path class="cls-1" d="M739.27,355.7c1.55.85,2.76,2.06,3.63,3.66s1.31,3.46,1.31,5.6-.44,4.04-1.31,5.63c-.87,1.59-2.08,2.81-3.63,3.66-1.55.85-3.29,1.27-5.23,1.27s-3.67-.42-5.21-1.27c-1.54-.84-2.75-2.07-3.63-3.67-.88-1.6-1.33-3.48-1.33-5.61s.44-4,1.33-5.6c.88-1.59,2.09-2.81,3.63-3.66,1.54-.85,3.27-1.27,5.21-1.27s3.68.42,5.23,1.27ZM731.1,358.87c-.9.5-1.62,1.26-2.16,2.29-.54,1.03-.82,2.29-.82,3.79s.27,2.79.82,3.8c.54,1.02,1.26,1.78,2.16,2.28.89.5,1.88.75,2.94.75s2.04-.25,2.94-.75c.9-.5,1.62-1.26,2.16-2.28.54-1.02.82-2.29.82-3.8s-.27-2.75-.82-3.79c-.54-1.03-1.26-1.8-2.16-2.29-.9-.5-1.88-.75-2.94-.75s-2.04.25-2.94.75Z"/>
    <path class="cls-1" d="M764.97,356.67c1.4,1.54,2.11,3.74,2.11,6.6v11.98h-4.14v-11.53c0-1.84-.46-3.26-1.38-4.27-.92-1.01-2.18-1.51-3.78-1.51s-2.96.54-3.96,1.62-1.49,2.67-1.49,4.76v10.93h-4.14v-20.56h4.14v4.51c.53-1.54,1.43-2.74,2.69-3.58,1.26-.85,2.71-1.27,4.36-1.27,2.32,0,4.19.77,5.59,2.31Z"/>
    <path class="cls-1" d="M786.31,351.24c-.65.61-.98,1.65-.98,3.12v.33h4.39v3.66h-4.39v16.9h-4.17v-16.9h-2.72v-3.66h2.72v-.67c0-2.51.71-4.4,2.14-5.65s3.57-1.81,6.42-1.66v3.73c-1.62-.07-2.76.19-3.41.8Z"/>
    <path class="cls-1" d="M807.44,355.7c1.55.85,2.76,2.06,3.63,3.66s1.31,3.46,1.31,5.6-.44,4.04-1.31,5.63c-.87,1.59-2.08,2.81-3.63,3.66-1.55.85-3.29,1.27-5.23,1.27s-3.67-.42-5.21-1.27c-1.54-.84-2.75-2.07-3.63-3.67-.88-1.6-1.33-3.48-1.33-5.61s.44-4,1.33-5.6c.88-1.59,2.09-2.81,3.63-3.66,1.54-.85,3.27-1.27,5.21-1.27s3.68.42,5.23,1.27ZM799.27,358.87c-.9.5-1.62,1.26-2.16,2.29-.54,1.03-.82,2.29-.82,3.79s.27,2.79.82,3.8c.54,1.02,1.26,1.78,2.16,2.28.89.5,1.88.75,2.94.75s2.04-.25,2.94-.75c.9-.5,1.62-1.26,2.16-2.28.54-1.02.82-2.29.82-3.8s-.27-2.75-.82-3.79c-.54-1.03-1.26-1.8-2.16-2.29-.9-.5-1.88-.75-2.94-.75s-2.04.25-2.94.75Z"/>
    <path class="cls-1" d="M823.41,355.53c1.26-.78,2.71-1.17,4.36-1.17v4.63h-1.23c-1.81,0-3.27.45-4.37,1.36-1.1.91-1.65,2.41-1.65,4.5v10.41h-4.14v-20.56h4.14v4.03c.68-1.34,1.65-2.41,2.9-3.19Z"/>
    <path class="cls-1" d="M843.48,352.34v7.98h9.44v3.28h-9.44v8.17h10.53v3.47h-14.66v-26.34h14.66v3.43h-10.53Z"/>
    <path class="cls-1" d="M869.87,375.25l-4.9-7.28-4.28,7.28h-4.61l6.61-10.67-6.68-9.89h4.68l4.79,7.09,4.25-7.09h4.57l-6.61,10.37,6.86,10.19h-4.68Z"/>
    <path class="cls-1" d="M892.74,356.54c1.69,1.41,2.75,3.31,3.16,5.73h-4.39c-.24-1.29-.83-2.31-1.76-3.04-.93-.73-2.1-1.1-3.5-1.1-1.6,0-2.93.58-3.99,1.74-1.06,1.16-1.6,2.85-1.6,5.09s.53,3.94,1.6,5.11,2.4,1.75,3.99,1.75c1.4,0,2.57-.37,3.5-1.12.93-.75,1.52-1.77,1.76-3.06h4.39c-.41,2.41-1.46,4.33-3.16,5.75s-3.83,2.13-6.42,2.13c-1.94,0-3.65-.42-5.14-1.27-1.49-.84-2.66-2.06-3.5-3.66-.85-1.59-1.27-3.47-1.27-5.63s.42-4,1.27-5.6c.85-1.59,2.01-2.81,3.5-3.66,1.49-.85,3.2-1.27,5.14-1.27,2.59,0,4.73.7,6.42,2.11Z"/>
    <path class="cls-1" d="M918.33,365.81h-15.39c.07,2.11.64,3.68,1.71,4.7,1.06,1.02,2.38,1.53,3.96,1.53,1.38,0,2.55-.36,3.5-1.08s1.54-1.68,1.76-2.87h4.43c-.27,1.44-.82,2.72-1.67,3.84-.85,1.12-1.95,2-3.3,2.63-1.36.63-2.87.95-4.54.95-1.94,0-3.65-.42-5.14-1.27-1.49-.84-2.66-2.06-3.5-3.66-.85-1.59-1.27-3.47-1.27-5.63s.42-4,1.27-5.6c.85-1.59,2.01-2.81,3.5-3.66s3.2-1.27,5.14-1.27,3.67.42,5.14,1.25c1.46.83,2.59,1.98,3.38,3.43.79,1.46,1.18,3.08,1.18,4.87,0,.7-.05,1.31-.15,1.83ZM913.63,360.49c-.5-.91-1.17-1.58-2.03-2.01-.86-.43-1.8-.65-2.81-.65-1.62,0-2.98.51-4.07,1.53-1.09,1.02-1.68,2.52-1.78,4.51h11.36c.05-1.34-.18-2.47-.67-3.38Z"/>
    <path class="cls-1" d="M926.6,347.64v27.61h-4.14v-27.61h4.14Z"/>
    <path class="cls-1" d="M935.75,347.64v27.61h-4.14v-27.61h4.14Z"/>
    <path class="cls-1" d="M959.2,365.81h-15.39c.07,2.11.64,3.68,1.71,4.7,1.06,1.02,2.38,1.53,3.96,1.53,1.38,0,2.55-.36,3.5-1.08s1.54-1.68,1.76-2.87h4.43c-.27,1.44-.82,2.72-1.67,3.84-.85,1.12-1.95,2-3.3,2.63-1.36.63-2.87.95-4.54.95-1.94,0-3.65-.42-5.14-1.27-1.49-.84-2.66-2.06-3.5-3.66-.85-1.59-1.27-3.47-1.27-5.63s.42-4,1.27-5.6c.85-1.59,2.01-2.81,3.5-3.66s3.2-1.27,5.14-1.27,3.67.42,5.14,1.25c1.46.83,2.59,1.98,3.38,3.43.79,1.46,1.18,3.08,1.18,4.87,0,.7-.05,1.31-.15,1.83ZM954.5,360.49c-.5-.91-1.17-1.58-2.03-2.01-.86-.43-1.8-.65-2.81-.65-1.62,0-2.98.51-4.07,1.53-1.09,1.02-1.68,2.52-1.78,4.51h11.36c.05-1.34-.18-2.47-.67-3.38Z"/>
    <path class="cls-1" d="M980.11,356.67c1.4,1.54,2.11,3.74,2.11,6.6v11.98h-4.14v-11.53c0-1.84-.46-3.26-1.38-4.27-.92-1.01-2.18-1.51-3.78-1.51s-2.96.54-3.96,1.62-1.49,2.67-1.49,4.76v10.93h-4.14v-20.56h4.14v4.51c.53-1.54,1.43-2.74,2.69-3.58,1.26-.85,2.71-1.27,4.36-1.27,2.32,0,4.19.77,5.59,2.31Z"/>
    <path class="cls-1" d="M1002.36,356.54c1.69,1.41,2.75,3.31,3.16,5.73h-4.39c-.24-1.29-.83-2.31-1.76-3.04-.93-.73-2.1-1.1-3.5-1.1-1.6,0-2.93.58-3.99,1.74-1.06,1.16-1.6,2.85-1.6,5.09s.53,3.94,1.6,5.11,2.4,1.75,3.99,1.75c1.4,0,2.57-.37,3.5-1.12.93-.75,1.52-1.77,1.76-3.06h4.39c-.41,2.41-1.46,4.33-3.16,5.75s-3.83,2.13-6.42,2.13c-1.94,0-3.65-.42-5.14-1.27-1.49-.84-2.66-2.06-3.5-3.66-.85-1.59-1.27-3.47-1.27-5.63s.42-4,1.27-5.6c.85-1.59,2.01-2.81,3.5-3.66s3.2-1.27,5.14-1.27c2.59,0,4.73.7,6.42,2.11Z"/>
    <path class="cls-1" d="M1027.95,365.81h-15.39c.07,2.11.64,3.68,1.71,4.7,1.06,1.02,2.38,1.53,3.96,1.53,1.38,0,2.55-.36,3.5-1.08s1.54-1.68,1.76-2.87h4.43c-.27,1.44-.82,2.72-1.67,3.84-.85,1.12-1.95,2-3.3,2.63-1.36.63-2.87.95-4.54.95-1.94,0-3.65-.42-5.14-1.27-1.49-.84-2.66-2.06-3.5-3.66-.85-1.59-1.27-3.47-1.27-5.63s.42-4,1.27-5.6c.85-1.59,2.01-2.81,3.5-3.66s3.2-1.27,5.14-1.27,3.67.42,5.14,1.25c1.46.83,2.59,1.98,3.38,3.43.79,1.46,1.18,3.08,1.18,4.87,0,.7-.05,1.31-.15,1.83ZM1023.25,360.49c-.5-.91-1.17-1.58-2.03-2.01-.86-.43-1.8-.65-2.81-.65-1.62,0-2.98.51-4.07,1.53-1.09,1.02-1.68,2.52-1.78,4.51h11.36c.05-1.34-.18-2.47-.67-3.38Z"/>
  </g>
  <g>
    <g>
      <g>
        <path class="cls-2" d="M301.27,243.7c-4.22,3.56-5.17,9.37-5.17,9.37,0,0,5.88.03,10.1-3.54,4.22-3.56,5.17-9.37,5.17-9.37,0,0-5.88-.03-10.1,3.54h0Z"/>
        <path class="cls-2" d="M324.79,381.79c3.34,4.64,3.35,9.96,3.3,9.98.01.07-7.29-2.27-10.41-7.36-3.13-5.03-1.32-10.05-1.37-10.04.02.05,5.15,2.83,8.48,7.43h0Z"/>
        <path class="cls-2" d="M319.03,397.19c6.52-.86,9.12-5.66,9.11-5.62-.08.02-6.94-2.24-12.95-1.76-6.07.51-9.75,4.13-9.76,4.17-.09.02,7,4.1,13.59,3.22h0Z"/>
        <path class="cls-2" d="M312.2,375.69c2.23,5.03,1.17,10.16,1.12,10.17,0,.07-6.36-3.39-8.34-8.84-1.99-5.38.67-9.93.63-9.93,0,.05,4.36,3.61,6.59,8.6h0Z"/>
        <path class="cls-2" d="M303.76,389.58c6.29.26,9.66-3.95,9.65-3.91-.07,0-6.04-3.31-11.83-3.86-5.85-.53-10.07,2.34-10.08,2.38-.08,0,5.89,5.14,12.25,5.38h0Z"/>
        <path class="cls-2" d="M301.43,367.66c1.17,5.24-.83,10.02-.87,10.02,0,.07-5.4-4.35-6.3-9.97-.92-5.55,2.48-9.51,2.44-9.51,0,.05,3.55,4.26,4.74,9.46h0Z"/>
        <path class="cls-2" d="M290.73,379.67c5.97,1.31,9.96-2.18,9.95-2.14-.06,0-5.11-4.22-10.58-5.74-5.53-1.51-10.14.54-10.15.58-.08,0,4.75,5.99,10.78,7.3h0Z"/>
        <path class="cls-2" d="M292.55,358.04c.18,5.29-2.64,9.57-2.67,9.56-.01.07-4.41-5.15-4.29-10.76.1-5.55,4.09-8.82,4.05-8.82,0,.05,2.72,4.77,2.91,10.02h0Z"/>
        <path class="cls-2" d="M280.02,367.83c5.54,2.3,10.02-.4,10.01-.36-.06-.01-4.15-4.96-9.2-7.4-5.1-2.43-9.96-1.24-9.97-1.21-.07-.02,3.57,6.66,9.17,8.97h0Z"/>
        <path class="cls-2" d="M285.63,347.13c-.74,5.19-4.24,8.85-4.28,8.84-.02.06-3.38-5.77-2.32-11.23,1.04-5.4,5.5-7.89,5.46-7.9-.02.05,1.85,5.14,1.13,10.29h0Z"/>
        <path class="cls-2" d="M271.71,354.47c4.99,3.21,9.83,1.36,9.81,1.4-.05-.02-3.16-5.55-7.68-8.82-4.57-3.27-9.52-2.97-9.54-2.94-.06-.03,2.37,7.13,7.42,10.36h0Z"/>
        <path class="cls-2" d="M280.73,335.26c-1.6,4.94-5.65,7.9-5.68,7.88-.03.06-2.33-6.24-.37-11.39,1.92-5.11,6.7-6.76,6.67-6.78-.02.05.96,5.38-.61,10.29h0Z"/>
        <path class="cls-2" d="M265.88,339.96c4.34,4.03,9.38,3.07,9.36,3.1-.05-.03-2.15-5.98-6.03-9.99-3.92-4.02-8.83-4.62-8.85-4.59-.06-.04,1.13,7.42,5.53,11.47h0Z"/>
        <path class="cls-2" d="M277.92,322.74c-2.39,4.57-6.84,6.74-6.87,6.72-.04.05-1.24-6.53,1.53-11.27,2.74-4.69,7.69-5.46,7.66-5.49-.03.04.03,5.49-2.32,10.03h0Z"/>
        <path class="cls-2" d="M262.59,324.71c3.58,4.73,8.67,4.69,8.64,4.72-.04-.04-1.11-6.25-4.24-10.9-3.17-4.66-7.87-6.13-7.9-6.11-.05-.05-.14,7.52,3.49,12.28h0Z"/>
        <path class="cls-2" d="M277.26,309.9c-3.11,4.09-7.83,5.43-7.85,5.4-.05.05-.12-6.67,3.4-10.85,3.48-4.15,8.46-4.04,8.44-4.06-.04.04-.92,5.45-3.98,9.52h0Z"/>
        <path class="cls-2" d="M261.93,309.09c2.71,5.31,7.7,6.18,7.67,6.21-.03-.04-.04-6.36-2.31-11.52-2.3-5.19-6.64-7.49-6.67-7.47-.04-.05-1.44,7.43,1.32,12.78h0Z"/>
        <path class="cls-2" d="M278.82,297.06c-3.75,3.51-8.6,3.98-8.62,3.95-.06.04,1.03-6.63,5.23-10.17,4.15-3.52,9.02-2.52,8.99-2.55-.05.03-1.89,5.28-5.6,8.77h0Z"/>
        <path class="cls-2" d="M263.96,293.51c1.72,5.76,6.46,7.51,6.42,7.53-.03-.05,1.06-6.31-.24-11.86-1.32-5.58-5.14-8.64-5.18-8.63-.04-.06-2.77,7.15-1.01,12.96h0Z"/>
        <path class="cls-2" d="M282.66,284.53c-4.33,2.84-9.15,2.44-9.17,2.41-.06.03,2.21-6.43,7.02-9.23,4.75-2.79,9.34-.94,9.33-.97-.06.02-2.9,4.97-7.18,7.79h0Z"/>
        <path class="cls-2" d="M268.77,278.35c.61,6.06,4.94,8.65,4.9,8.66-.02-.05,2.18-6.11,1.98-11.89-.22-5.82-3.36-9.57-3.4-9.56-.03-.06-4.13,6.69-3.48,12.79h0Z"/>
        <path class="cls-2" d="M288.85,272.66c-4.82,2.09-9.48.85-9.49.81-.07.02,3.43-6.05,8.77-8.05,5.27-1.99,9.44.66,9.43.63-.07.02-3.94,4.52-8.7,6.61h0Z"/>
        <path class="cls-2" d="M276.42,264.01c-.61,6.19,3.15,9.54,3.1,9.55-.01-.05,3.33-5.74,4.34-11.6.99-5.9-1.29-10.23-1.34-10.23-.02-.07-5.52,6.03-6.1,12.28h0Z"/>
        <path class="cls-2" d="M297.47,261.75c-5.25,1.29-9.57-.77-9.58-.81-.08.01,4.68-5.52,10.47-6.64,5.72-1.12,9.31,2.25,9.3,2.22-.07,0-5,3.94-10.18,5.23h0Z"/>
        <path class="cls-2" d="M287,250.89c-1.95,6.15,1.08,10.17,1.02,10.17,0-.05,4.51-5.21,6.85-10.98,2.32-5.81,1.06-10.58,1-10.59-.02-.07-6.94,5.19-8.87,11.4h0Z"/>
        <path class="cls-2" d="M348.79,394.18l-.06-1.14c-9.47.5-18.83-.9-27.84-4.17-8.77-3.19-16.83-8-23.94-14.3-14.75-13.08-23.9-31.3-25.76-51.31-1.52-16.38.12-30.87,4.87-43.05,5.1-13.09,13.69-23.15,25.54-29.92l-.57-.99c-12.07,6.9-20.83,17.16-26.03,30.5-4.82,12.35-6.48,27.01-4.95,43.57,1.88,20.29,11.16,38.78,26.14,52.06,7.22,6.4,15.4,11.29,24.31,14.52,9.15,3.32,18.67,4.75,28.29,4.24h0Z"/>
      </g>
      <g>
        <path class="cls-2" d="M419.68,243.7c4.22,3.56,5.17,9.37,5.17,9.37,0,0-5.88.03-10.1-3.54-4.22-3.56-5.17-9.37-5.17-9.37,0,0,5.88-.03,10.1,3.54h0Z"/>
        <path class="cls-2" d="M396.16,381.79c-3.34,4.64-3.35,9.96-3.3,9.98-.01.07,7.29-2.27,10.41-7.36,3.13-5.03,1.32-10.05,1.37-10.04-.02.05-5.14,2.83-8.48,7.43h0Z"/>
        <path class="cls-2" d="M401.92,397.19c-6.52-.86-9.12-5.66-9.11-5.62.08.02,6.94-2.24,12.95-1.76,6.07.51,9.75,4.13,9.76,4.17.09.02-7,4.1-13.59,3.22h0Z"/>
        <path class="cls-2" d="M408.75,375.69c-2.23,5.03-1.17,10.16-1.12,10.17,0,.07,6.36-3.39,8.34-8.84,1.99-5.38-.67-9.93-.63-9.93,0,.05-4.36,3.61-6.59,8.6h0Z"/>
        <path class="cls-2" d="M417.19,389.58c-6.29.26-9.66-3.95-9.65-3.91.07,0,6.04-3.31,11.83-3.86,5.85-.53,10.07,2.34,10.08,2.38.08,0-5.89,5.14-12.25,5.38h0Z"/>
        <path class="cls-2" d="M419.52,367.66c-1.17,5.24.83,10.02.87,10.02,0,.07,5.4-4.35,6.3-9.97.92-5.55-2.48-9.51-2.44-9.51,0,.05-3.55,4.26-4.74,9.46h0Z"/>
        <path class="cls-2" d="M430.22,379.67c-5.97,1.31-9.96-2.18-9.95-2.14.06,0,5.11-4.22,10.58-5.74,5.53-1.51,10.14.54,10.15.58.08,0-4.75,5.99-10.78,7.3h0Z"/>
        <path class="cls-2" d="M428.4,358.04c-.18,5.29,2.63,9.57,2.67,9.56.01.07,4.41-5.15,4.29-10.76-.1-5.55-4.09-8.82-4.05-8.82,0,.05-2.72,4.77-2.91,10.02h0Z"/>
        <path class="cls-2" d="M440.93,367.83c-5.54,2.3-10.02-.4-10.01-.36.06-.01,4.15-4.96,9.2-7.4,5.1-2.43,9.96-1.24,9.97-1.21.07-.02-3.57,6.66-9.17,8.97h0Z"/>
        <path class="cls-2" d="M435.32,347.13c.74,5.19,4.24,8.85,4.28,8.84.02.06,3.39-5.77,2.32-11.23-1.04-5.4-5.5-7.89-5.46-7.9.01.05-1.85,5.14-1.13,10.29h0Z"/>
        <path class="cls-2" d="M449.24,354.47c-4.99,3.21-9.83,1.36-9.81,1.4.05-.02,3.16-5.55,7.68-8.82,4.57-3.27,9.52-2.97,9.54-2.94.06-.03-2.37,7.13-7.42,10.36h0Z"/>
        <path class="cls-2" d="M440.22,335.26c1.6,4.94,5.65,7.9,5.68,7.88.03.06,2.33-6.24.37-11.39-1.92-5.11-6.7-6.76-6.67-6.78.02.05-.96,5.38.61,10.29h0Z"/>
        <path class="cls-2" d="M455.07,339.96c-4.34,4.03-9.38,3.07-9.35,3.1.05-.03,2.15-5.98,6.03-9.99,3.93-4.02,8.83-4.62,8.85-4.59.06-.04-1.13,7.42-5.53,11.47h0Z"/>
        <path class="cls-2" d="M443.03,322.74c2.39,4.57,6.84,6.74,6.87,6.72.04.05,1.24-6.53-1.53-11.27-2.74-4.69-7.69-5.46-7.66-5.49.03.04-.04,5.49,2.32,10.03h0Z"/>
        <path class="cls-2" d="M458.36,324.71c-3.58,4.73-8.67,4.69-8.64,4.72.04-.04,1.11-6.25,4.24-10.9,3.17-4.66,7.87-6.13,7.9-6.11.05-.05.14,7.52-3.49,12.28h0Z"/>
        <path class="cls-2" d="M443.69,309.9c3.11,4.09,7.83,5.43,7.86,5.4.05.05.12-6.67-3.4-10.85-3.48-4.15-8.46-4.04-8.44-4.06.04.04.92,5.45,3.98,9.52h0Z"/>
        <path class="cls-2" d="M459.02,309.09c-2.71,5.31-7.7,6.18-7.67,6.21.03-.04.04-6.36,2.31-11.52,2.3-5.19,6.64-7.49,6.67-7.47.04-.05,1.44,7.43-1.32,12.78h0Z"/>
        <path class="cls-2" d="M442.13,297.06c3.75,3.51,8.6,3.98,8.62,3.95.06.04-1.03-6.63-5.23-10.17-4.15-3.52-9.01-2.52-8.99-2.55.05.03,1.89,5.28,5.6,8.77h0Z"/>
        <path class="cls-2" d="M456.99,293.51c-1.72,5.76-6.46,7.51-6.42,7.53.03-.05-1.06-6.31.24-11.86,1.32-5.58,5.14-8.64,5.18-8.63.04-.06,2.77,7.15,1.01,12.96h0Z"/>
        <path class="cls-2" d="M438.29,284.53c4.33,2.84,9.15,2.44,9.17,2.41.06.03-2.21-6.43-7.02-9.23-4.75-2.79-9.34-.94-9.32-.97.06.02,2.9,4.97,7.18,7.79h0Z"/>
        <path class="cls-2" d="M452.18,278.35c-.61,6.06-4.94,8.65-4.9,8.66.02-.05-2.18-6.11-1.98-11.89.23-5.82,3.36-9.57,3.4-9.56.03-.06,4.13,6.69,3.48,12.79h0Z"/>
        <path class="cls-2" d="M432.09,272.66c4.82,2.09,9.48.85,9.49.81.07.02-3.43-6.05-8.77-8.05-5.27-1.99-9.44.66-9.43.63.07.02,3.94,4.52,8.7,6.61h0Z"/>
        <path class="cls-2" d="M444.53,264.01c.61,6.19-3.15,9.54-3.1,9.55.01-.05-3.33-5.74-4.34-11.6-.99-5.9,1.29-10.23,1.34-10.23.02-.07,5.52,6.03,6.1,12.28h0Z"/>
        <path class="cls-2" d="M423.48,261.75c5.25,1.29,9.57-.77,9.58-.81.08.01-4.68-5.52-10.47-6.64-5.72-1.12-9.31,2.25-9.3,2.22.07,0,5,3.94,10.18,5.23h0Z"/>
        <path class="cls-2" d="M433.95,250.89c1.95,6.15-1.08,10.17-1.02,10.17,0-.05-4.51-5.21-6.85-10.98-2.32-5.81-1.06-10.58-1-10.59.02-.07,6.94,5.19,8.87,11.4h0Z"/>
        <path class="cls-2" d="M372.16,394.18l.06-1.14c9.47.5,18.83-.9,27.84-4.17,8.77-3.19,16.83-8,23.94-14.3,14.75-13.08,23.9-31.3,25.76-51.31,1.52-16.38-.12-30.87-4.87-43.05-5.1-13.09-13.69-23.15-25.54-29.92l.57-.99c12.07,6.9,20.83,17.16,26.03,30.5,4.82,12.35,6.48,27.01,4.95,43.57-1.88,20.29-11.16,38.78-26.14,52.06-7.22,6.4-15.4,11.29-24.31,14.52-9.15,3.32-18.67,4.75-28.29,4.24h0Z"/>
      </g>
    </g>
    <g>
      <path class="cls-2" d="M361.09,303.48c.33-2,1.03-4.96,2.76-8.12,3.84-7.03,10.24-10.48,15.97-13.58,2.29-1.24,5.52-2.8,9.6-4.19-.74,12.46-6.39,22.74-15.12,26.05-1.85.7-4.44,1.32-7.8,1.11,2.34-1.09,5.89-3.1,9.23-6.69,2.32-2.49,3.82-4.97,4.77-6.9-1.78,2.08-4.4,4.71-8.04,7.14-4.35,2.9-8.47,4.38-11.38,5.17Z"/>
      <path class="cls-2" d="M359.82,303.9c-.33-2-1.03-4.96-2.76-8.12-3.84-7.03-10.24-10.48-15.97-13.58-2.29-1.24-5.52-2.8-9.6-4.19.74,12.46,6.39,22.74,15.12,26.05,1.85.7,4.44,1.32,7.8,1.11-2.34-1.09-5.89-3.1-9.23-6.69-2.32-2.49-3.82-4.97-4.77-6.9,1.78,2.08,4.4,4.71,8.04,7.14,4.35,2.9,8.47,4.38,11.38,5.17Z"/>
      <path class="cls-2" d="M361.78,295.15c1-1.83,2.38-3.99,4.3-6.21,1.37-1.58,2.74-2.88,3.98-3.93-.44-2.72-1.36-6.56-3.45-10.77-2.06-4.16-4.52-7.19-6.39-9.18-1.69,2.04-3.55,4.61-5.28,7.75-2.5,4.54-3.9,8.78-4.72,12.1,1.52.88,3.8,2.45,5.84,5.09,1.38,1.8,2.23,3.54,2.76,4.88.34-6.65.67-13.3,1.01-19.95h.9l1.06,20.21Z"/>
      <path class="cls-2" d="M368.65,273.87l3.82,9.91c1.24-1.59,2.6-3.61,3.82-6.09.78-1.59,1.38-3.09,1.83-4.46-.02,1.14-.14,2.59-.56,4.22-.32,1.27-.75,2.35-1.15,3.22,2.11-1.18,4.22-2.36,6.33-3.54.05-2.57.01-5.34-.16-8.28-.19-3.2-.51-6.18-.92-8.91-4.34,4.64-8.67,9.28-13.01,13.93Z"/>
      <path class="cls-2" d="M351.64,273.87l-3.82,9.91c-1.24-1.59-2.6-3.61-3.82-6.09-.78-1.59-1.38-3.09-1.83-4.46.02,1.14.14,2.59.56,4.22.32,1.27.75,2.35,1.15,3.22-2.11-1.18-4.22-2.36-6.33-3.54-.05-2.57-.01-5.34.16-8.28.19-3.2.51-6.18.92-8.91,4.34,4.64,8.67,9.28,13.01,13.93Z"/>
      <path class="cls-2" d="M350.22,250.16l6.9,14.17-4.02,7.54-4.44-4.44c.06-1.26.13-2.55.22-3.86.07-1.02.15-2.03.24-3.02-.36.59-.82,1.49-1.09,2.67-.29,1.23-.26,2.28-.19,2.97-1.08-1.31-2.16-2.62-3.24-3.93.68-2.32,1.67-5,3.13-7.84.81-1.58,1.66-3,2.49-4.26Z"/>
      <path class="cls-2" d="M370.08,250.16l-6.9,14.17,4.02,7.54,4.44-4.44c-.06-1.26-.13-2.55-.22-3.86-.07-1.02-.15-2.03-.24-3.02.36.59.82,1.49,1.09,2.67.29,1.23.26,2.28.19,2.97,1.08-1.31,2.16-2.62,3.24-3.93-.68-2.32-1.67-5-3.13-7.84-.81-1.58-1.66-3-2.49-4.26Z"/>
      <polygon class="cls-2" points="353.77 252.27 359.1 263.25 359.1 249.6 360.73 249.6 360.73 263.25 362.17 263.25 366.54 252.15 360.53 241.92 353.77 252.27"/>
      <path class="cls-2" d="M389.86,291.19c-.48-1.78-.72-3.93-.2-6.21.17-.76.62-2.36,3.94-7.16,1.06-1.53,2.38-3.34,3.98-5.33.36.84,3.66,8.79-.64,15.04-1.19,1.73-2.65,2.89-3.94,3.67.85-1.18,1.99-3.07,2.67-5.62.44-1.68.56-3.18.56-4.34-.41,1.44-1.15,3.45-2.54,5.58-1.3,2-2.73,3.43-3.83,4.38Z"/>
      <path class="cls-2" d="M400.14,291.49c-.16-1.38-.11-2.99.53-4.63.21-.54.72-1.69,3.7-4.89.95-1.02,2.13-2.22,3.53-3.52.18.66,1.76,6.92-2.11,11.09-1.07,1.15-2.28,1.86-3.32,2.29.76-.78,1.81-2.06,2.59-3.88.51-1.2.76-2.3.88-3.16-.46,1.03-1.23,2.43-2.49,3.86-1.18,1.34-2.4,2.25-3.32,2.83Z"/>
      <path class="cls-2" d="M320.81,292.18c.16-1.38.11-2.99-.53-4.63-.21-.54-.72-1.69-3.7-4.89-.95-1.02-2.13-2.22-3.53-3.52-.18.66-1.76,6.92,2.11,11.09,1.07,1.15,2.28,1.86,3.32,2.29-.76-.78-1.81-2.06-2.59-3.88-.51-1.2-.76-2.3-.88-3.16.46,1.03,1.23,2.43,2.49,3.86,1.18,1.34,2.4,2.25,3.32,2.83Z"/>
      <path class="cls-2" d="M317.76,280.22c.7-.73,1.38-1.7,1.73-2.94.12-.41.33-1.3,0-4.48-.11-1.02-.27-2.24-.51-3.61-.4.31-4.08,3.27-3.66,7.4.12,1.14.52,2.09.93,2.8-.1-.79-.15-2,.2-3.41.23-.93.57-1.68.88-2.23-.18.8-.36,1.96-.25,3.35.1,1.31.41,2.37.69,3.11Z"/>
      <path class="cls-2" d="M402.92,280.61c-.7-.73-1.38-1.7-1.73-2.94-.12-.41-.33-1.3,0-4.48.11-1.02.27-2.24.51-3.61.4.31,4.08,3.27,3.66,7.4-.12,1.14-.52,2.09-.93,2.8.1-.79.15-2-.2-3.41-.23-.93-.57-1.68-.88-2.23.18.8.36,1.96.25,3.35-.1,1.31-.41,2.37-.69,3.11Z"/>
      <path class="cls-2" d="M323.57,270.08c.8-.66,1.61-1.56,2.12-2.77.17-.4.49-1.28.54-4.55.02-1.04,0-2.3-.07-3.73-.44.27-4.53,2.81-4.62,7.06-.02,1.17.27,2.18.6,2.96,0-.81.09-2.05.62-3.43.35-.91.78-1.63,1.16-2.16-.28.79-.6,1.95-.67,3.37-.06,1.34.12,2.45.32,3.24Z"/>
      <path class="cls-2" d="M397.09,269.96c-.8-.66-1.61-1.56-2.12-2.77-.17-.4-.49-1.28-.54-4.55-.02-1.04,0-2.3.07-3.73.44.27,4.53,2.81,4.62,7.06.02,1.17-.27,2.18-.6,2.96,0-.81-.09-2.05-.62-3.43-.35-.91-.78-1.63-1.16-2.16.28.79.6,1.95.67,3.37.06,1.34-.12,2.45-.32,3.24Z"/>
      <path class="cls-2" d="M329.69,258.45c.5-.41,1-.97,1.32-1.72.11-.25.3-.79.34-2.83.01-.65,0-1.43-.04-2.32-.27.16-2.82,1.75-2.87,4.39-.01.73.17,1.36.37,1.84,0-.51.06-1.27.38-2.13.22-.57.49-1.01.72-1.34-.18.49-.37,1.21-.41,2.09-.04.83.08,1.53.2,2.02Z"/>
      <path class="cls-2" d="M391.08,258.92c-.5-.41-1-.97-1.32-1.72-.11-.25-.3-.79-.34-2.83-.01-.65,0-1.43.04-2.32.27.16,2.82,1.75,2.87,4.39.01.73-.17,1.36-.37,1.84,0-.51-.06-1.27-.38-2.13-.22-.57-.49-1.01-.72-1.34.18.49.37,1.21.41,2.09.04.83-.08,1.53-.2,2.02Z"/>
      <path class="cls-2" d="M343.85,246.32c.26-.13.53-.32.75-.61.07-.1.21-.31.44-1.19.07-.28.15-.62.22-1.01-.14.04-1.4.47-1.7,1.61-.08.32-.07.61-.03.84.05-.22.16-.55.39-.89.15-.22.32-.39.45-.51-.13.2-.29.49-.4.87-.1.36-.12.67-.12.9Z"/>
      <path class="cls-2" d="M376.82,246.32c-.26-.13-.53-.32-.75-.61-.07-.1-.21-.31-.44-1.19-.07-.28-.15-.62-.22-1.01.14.04,1.4.47,1.7,1.61.08.32.07.61.03.84-.05-.22-.16-.55-.39-.89-.15-.22-.32-.39-.45-.51.13.2.29.49.4.87.1.36.12.67.12.9Z"/>
      <path class="cls-2" d="M369.74,242.97c-.26-.13-.53-.32-.75-.61-.07-.1-.21-.31-.44-1.19-.07-.28-.15-.62-.22-1.01.14.04,1.4.47,1.7,1.61.08.32.07.61.03.84-.05-.22-.16-.55-.39-.89-.15-.22-.32-.39-.45-.51.13.2.29.49.4.87.1.36.12.67.12.9Z"/>
      <path class="cls-2" d="M351.06,243.16c.26-.13.53-.32.75-.61.07-.1.21-.31.44-1.19.07-.28.15-.62.22-1.01-.14.04-1.4.47-1.7,1.61-.08.32-.07.61-.03.84.05-.22.16-.55.39-.89.15-.22.32-.39.45-.51-.13.2-.29.49-.4.87-.1.36-.12.67-.12.9Z"/>
      <path class="cls-2" d="M363.89,243.64c-.26-.13-.53-.32-.75-.61-.07-.1-.21-.31-.44-1.19-.07-.28-.15-.62-.22-1.01.14.04,1.4.47,1.7,1.61.08.32.07.61.03.84-.05-.22-.16-.55-.39-.89-.15-.22-.32-.39-.45-.51.13.2.29.49.4.87.1.36.12.67.12.9Z"/>
      <path class="cls-2" d="M356.76,243.74c.26-.13.53-.32.75-.61.07-.1.21-.31.44-1.19.07-.28.15-.62.22-1.01-.14.04-1.4.47-1.7,1.61-.08.32-.07.61-.03.84.05-.22.16-.55.39-.89.15-.22.32-.39.45-.51-.13.2-.29.49-.4.87-.1.36-.12.67-.12.9Z"/>
      <path class="cls-2" d="M330.59,291.19c.48-1.78.72-3.93.2-6.21-.17-.76-.62-2.36-3.94-7.16-1.06-1.53-2.38-3.34-3.98-5.33-.36.84-3.66,8.79.64,15.04,1.19,1.73,2.65,2.89,3.94,3.67-.85-1.18-1.99-3.07-2.67-5.62-.44-1.68-.56-3.18-.56-4.34.41,1.44,1.15,3.45,2.54,5.58,1.3,2,2.73,3.43,3.83,4.38Z"/>
      <path class="cls-2" d="M333.64,275.96c.63-1.34,1.11-3,1.02-4.87-.03-.62-.16-1.95-2.12-6.19-.62-1.36-1.42-2.97-2.4-4.76-.4.61-4.1,6.43-1.58,11.95.7,1.53,1.69,2.65,2.6,3.44-.51-1.05-1.15-2.7-1.33-4.8-.12-1.39,0-2.59.16-3.5.12,1.19.43,2.88,1.23,4.75.75,1.76,1.68,3.08,2.42,3.98Z"/>
      <path class="cls-2" d="M386.58,275.96c-.63-1.34-1.11-3-1.02-4.87.03-.62.16-1.95,2.12-6.19.62-1.36,1.42-2.97,2.4-4.76.4.61,4.1,6.43,1.58,11.95-.7,1.53-1.69,2.65-2.6,3.44.51-1.05,1.15-2.7,1.33-4.8.12-1.39,0-2.59-.16-3.5-.12,1.19-.43,2.88-1.23,4.75-.75,1.76-1.68,3.08-2.42,3.98Z"/>
      <path class="cls-2" d="M384.33,262.66c-.6-.94-1.13-2.13-1.26-3.54-.04-.47-.08-1.47.95-4.84.33-1.08.76-2.36,1.31-3.8.36.42,3.72,4.39,2.39,8.77-.37,1.21-1,2.15-1.59,2.83.27-.83.58-2.13.5-3.72-.05-1.05-.26-1.93-.48-2.6.03.91-.03,2.2-.44,3.68-.38,1.39-.94,2.48-1.4,3.22Z"/>
      <path class="cls-2" d="M335.89,262.34c.6-.94,1.13-2.13,1.26-3.54.04-.47.08-1.47-.95-4.84-.33-1.08-.76-2.36-1.31-3.8-.36.42-3.72,4.39-2.39,8.77.37,1.21,1,2.15,1.59,2.83-.27-.83-.58-2.13-.5-3.72.05-1.05.26-1.93.48-2.6-.03.91.03,2.2.44,3.68.38,1.39.94,2.48,1.4,3.22Z"/>
      <path class="cls-2" d="M342.59,260.49c.62-.68,1.21-1.57,1.49-2.7.1-.37.26-1.18-.12-4.05-.12-.92-.3-2.02-.55-3.25-.35.29-3.6,3.06-3.12,6.79.13,1.03.52,1.88.91,2.51-.11-.71-.19-1.81.09-3.08.18-.84.47-1.53.73-2.04-.15.73-.27,1.78-.14,3.04.12,1.18.43,2.13.7,2.8Z"/>
      <path class="cls-2" d="M346.81,251.16c.56-.43,1.13-1.02,1.5-1.82.12-.27.36-.85.47-3.07.04-.71.06-1.56.04-2.53-.31.17-3.14,1.8-3.3,4.68-.04.8.13,1.49.34,2.02.02-.55.11-1.39.5-2.31.26-.61.57-1.09.84-1.43-.21.53-.45,1.3-.53,2.27-.07.9.03,1.67.14,2.21Z"/>
      <path class="cls-2" d="M352.38,249.65c.56-.43,1.13-1.02,1.5-1.82.12-.27.36-.85.47-3.07.04-.71.06-1.56.04-2.53-.31.17-3.14,1.8-3.3,4.68-.04.8.13,1.49.34,2.02.02-.55.11-1.39.5-2.31.26-.61.57-1.09.84-1.43-.21.53-.45,1.3-.53,2.27-.07.9.03,1.67.14,2.21Z"/>
      <path class="cls-2" d="M368.01,249.4c-.52-.4-1.05-.95-1.4-1.7-.12-.25-.34-.8-.44-2.86-.03-.66-.05-1.45-.04-2.35.28.16,2.92,1.67,3.07,4.35.04.74-.12,1.38-.31,1.88-.02-.51-.1-1.29-.47-2.15-.24-.57-.53-1.01-.78-1.34.2.49.42,1.21.49,2.11.07.84-.02,1.55-.13,2.05Z"/>
      <path class="cls-2" d="M373.66,251.16c-.56-.43-1.13-1.02-1.5-1.82-.12-.27-.36-.85-.47-3.07-.04-.71-.06-1.56-.04-2.53.31.17,3.14,1.8,3.3,4.68.04.8-.13,1.49-.34,2.02-.02-.55-.11-1.39-.5-2.31-.26-.61-.57-1.09-.84-1.43.21.53.45,1.3.53,2.27.07.9-.03,1.67-.14,2.21Z"/>
      <path class="cls-2" d="M338.92,253.31c.51-.4,1.04-.95,1.38-1.7.11-.25.33-.79.42-2.85.03-.65.04-1.44.02-2.34-.28.16-2.89,1.69-3.02,4.35-.03.74.13,1.38.33,1.87.01-.51.09-1.28.45-2.14.23-.57.52-1.01.77-1.33-.19.49-.41,1.21-.47,2.1-.06.84.04,1.54.14,2.04Z"/>
      <path class="cls-2" d="M381.86,252.9c-.51-.4-1.04-.95-1.38-1.7-.11-.25-.33-.79-.42-2.85-.03-.65-.04-1.44-.02-2.34.28.16,2.89,1.69,3.02,4.35.03.74-.13,1.38-.33,1.87-.01-.51-.09-1.28-.45-2.14-.23-.57-.52-1.01-.77-1.33.19.49.41,1.21.47,2.1.06.84-.04,1.54-.14,2.04Z"/>
      <path class="cls-2" d="M377.69,260.49c-.62-.68-1.21-1.57-1.49-2.7-.1-.37-.26-1.18.12-4.05.12-.92.3-2.02.55-3.25.35.29,3.6,3.06,3.12,6.79-.13,1.03-.52,1.88-.91,2.51.11-.71.19-1.81-.09-3.08-.18-.84-.47-1.53-.73-2.04.15.73.27,1.78.14,3.04-.12,1.18-.43,2.13-.7,2.8Z"/>
    </g>
    <circle class="cls-1" cx="360.47" cy="313.48" r="6.56"/>
    <g>
      <g>
        <g>
          <path class="cls-2" d="M380.54,320.01c.38-.21,4.31-2.47,4.66-6.77.34-4.23-2.99-7.93-3.85-7.63-.38.13-.38,1.08-.38,2.86,0,1.86.29,3.38.54,4.41.1.81.15,1.81.05,2.95-.15,1.76-.61,3.18-1.03,4.19Z"/>
          <path class="cls-2" d="M386.92,315.71c.73-.49,1.79-1.32,2.74-2.64.82-1.13,1.27-2.21,1.53-2.99.18-2.13.18-5.14-.72-8.57-.46-1.76-1.06-3.27-1.66-4.51-.49-.14-.81-.05-.97.01-.8.32-1.28,1.5-1.03,2.91.48,1.83.92,4.14,1.03,6.82.15,3.65-.36,6.73-.92,8.96Z"/>
          <path class="cls-2" d="M392.73,309.34c1.1-1.79,2.2-3.58,3.3-5.38.34-.56.69-1.13.88-1.76.16-.53.2-1.08.25-1.64.16-2.05.33-4.1.49-6.15-.01.14-1.31.9-1.49,1.06-.5.44-.95.93-1.35,1.46-.8,1.09-1.19,2.45-1.53,3.75-.74,2.81-.94,5.77-.55,8.65Z"/>
        </g>
        <g>
          <path class="cls-2" d="M340.41,320.01c-.38-.21-4.31-2.47-4.66-6.77-.34-4.23,2.99-7.93,3.85-7.63.38.13.38,1.08.38,2.86,0,1.86-.29,3.38-.54,4.41-.1.81-.15,1.81-.05,2.95.15,1.76.61,3.18,1.03,4.19Z"/>
          <path class="cls-2" d="M334.03,315.71c-.73-.49-1.79-1.32-2.74-2.64-.82-1.13-1.27-2.21-1.53-2.99-.18-2.13-.18-5.14.72-8.57.46-1.76,1.06-3.27,1.66-4.51.49-.14.81-.05.97.01.8.32,1.28,1.5,1.03,2.91-.48,1.83-.92,4.14-1.03,6.82-.15,3.65.36,6.73.92,8.96Z"/>
          <path class="cls-2" d="M328.22,309.34c-1.1-1.79-2.2-3.58-3.3-5.38-.34-.56-.69-1.13-.88-1.76-.16-.53-.2-1.08-.25-1.64-.16-2.05-.33-4.1-.49-6.15.01.14,1.31.9,1.49,1.06.5.44.95.93,1.35,1.46.8,1.09,1.19,2.45,1.53,3.75.74,2.81.94,5.77.55,8.65Z"/>
        </g>
      </g>
      <path class="cls-2" d="M398.51,355.5c1.4.26,2.78.59,4.19.99-2.48-.25-4.87.18-7.26.79-.84.22-1.88-.3-2.82-.49-.48-.1-.96-.22-1.59-.37.4.37.79.74,1.16,1.1.16.02.32.02.48.03h-.45c.76.74,1.49,1.43,2.28,2.02.69.52,1.65.67,2.47,1.02.78.33,1.54.7,2.25,1.16-2.79-.18-5.38-.71-7.46-2.84-.7-.72-1.86-1.15-2.91-1.36h-5.24c-.17.03-.35.08-.53.13-.59.16-1.32.06-1.98-.13h0c-3,0-6.01,0-9.01,0,1.86,1.02,3.48,1.96,5.75,1.13,1.12-.42,2.78-.28,3.86.27,1.85.94,3.6.93,5.53.68,1.12-.14,2.29.1,3.38.37-1.55.23-3.1.41-4.64.7-1.67.31-3.2.34-4.88-.36-1.09-.46-2.54-.04-3.97-.01.82,2.26,2.1,3.06,3.99,2.69,1.53-.3,3.04-.73,4.57-1.1.18-.04.36-.08.55-.08,3.75-.16,6.8,1.25,9.21,4.09-2.44-2-5.28-2.89-8.35-3.14-.12.13-.25.26-.37.39.54.65,1.01,1.38,1.63,1.94,1.16,1.04,2.38,2.02,3.62,2.96.46.35,1.04.55,1.57.81l-.13.32c-.69-.35-1.39-.68-2.06-1.07-1.26-.73-2.5-1.49-3.74-2.26-.42-.26-.88-.54-1.15-.93-.76-1.08-1.7-1.31-2.92-.97-1.15.32-2.33.53-3.61.82.75,2.08,2.47,3.2,4.51,3.96,1.38.52,2.85.85,4.16,1.51.87.44,1.53,1.31,2.12,2.2-2.25-2.96-5.92-2.35-8.77-3.47.86,2.22,1.78,4.59,2.71,6.95-.06.03-.12.06-.18.08-.18-.25-.38-.49-.52-.77-1.19-2.44-2.1-5.06-3.63-7.26-1.15-1.66-2.15-3.71-4.33-4.47-.26-.09-.55-.19-.74-.38-1.53-1.53-3.48-1.19-5.31-1.1-1.6.08-2.93-.23-4-1.46-.34-.4-.76-.72-1.14-1.08-.14.14-.28.29-.42.43.96.9,1.81,1.99,2.91,2.64,1.77,1.04,3.77,1.42,5.86,1.56,1,.07,2.03.92,2.88,1.62.73.59,1.23,1.46,1.75,2.4-.6-.45-1.35-.79-1.77-1.36-.92-1.27-2.04-1.64-3.71-1.21.76.92,1.54,1.7,2.1,2.61.79,1.27,1.77,2.16,3.24,2.57.4.11.93.68.95,1.07.13,2.42,1.91,3.91,3.06,5.77-1.43-1.28-3.23-2.27-3.73-4.33-.32-1.31-.98-2.02-2.36-2.03-.34,0-.68-.23-1.14-.4,0,.71-.09,1.35.02,1.96.26,1.48.85,2.94-.23,4.38-.17.23.18.85.3,1.29.18.74.37,1.47.36,2.25-.32-.68-.69-1.33-.95-2.03-.21-.56-.55-1.25-.38-1.72.65-1.8-.41-3.43-.34-5.13.1-2.63-1.52-4.29-3.22-5.82-.85-.75-2.13-1.02-3.43-1.41,3.55,3.85,5.91,8.05,4.44,13.4-1.02-2.27.47-5.26-1.78-7.47,0,.84.08,1.6-.02,2.32-.16,1.08-.33,2.18-.71,3.2-.62,1.65-.32,3.6.93,4.82.27.25.51.53.84.88-2.17-.74-3.82-4.07-2.73-5.91,1.02-1.72.59-3.43.29-4.97-.63-3.19-2.74-5.57-5.32-7.54.15,1.68.88,3.12,1.85,4.44,2.17,2.94,2.97,5.98.99,9.38-.5.88-.98,1.96-.93,2.91.05.92.8,1.79.97,2.85-.64-.98-1.41-1.9-1.89-2.95-.22-.48-.07-1.33.23-1.81,1.87-2.95,2-5.78-.22-8.63-.51-.66-.76-1.53-1.15-2.33-1.08,1.12-1.06,3.23.2,4.98.98,1.36,1.07,2.77.74,4.34-.02-1.79-1.19-3-1.94-4.44-.86-1.65-1.03-3.66-1.51-5.54-.33.42-.79.97-1.23,1.53-1.42,1.8-1.35,2.67.05,4.49,1.01,1.31,2.26,2.63,2.67,4.15.46,1.73.11,3.68.11,5.44-.36-1.81-.41-3.85-1.21-5.54-.82-1.74-2.37-3.12-3.98-4.68-.09.87-.43,1.79-.23,2.58.3,1.19,1.02,2.26,1.47,3.41.43,1.11.74,2.26.81,3.5-1.14-2.31-2.69-4.51-3.28-6.95-.51-2.13.25-4.43,1.68-6.38,1.02-1.37,1.71-2.98,2.55-4.48-.14-.11-.28-.22-.43-.34-.51.4-1.12.72-1.51,1.21-1.83,2.31-3.98,4.47-3.92,7.75.03,1.3-.17,2.5.48,3.86.89,1.87-.46,4.42-2.64,5.62.23-.27.43-.6.71-.82,1.58-1.19,1.37-2.82,1.04-4.43-.19-.98-.67-1.91-.82-2.9-.14-.95-.03-1.93-.03-3.26-.86,1.38-1.38,2.56-1.41,3.97-.02,1.36-.14,2.73-.37,4.08-.65-4.45-.68-5.73.26-7.35,1.26-2.18,2.67-4.26,3.99-6.33-2.94.52-6.53,3.43-6.43,7.09.02.85-.37,1.71-.53,2.57-.08.39-.21.86-.08,1.19.57,1.34.28,2.51-.46,3.69-.28.45-.37,1.02-.54,1.54-.09-.02-.17-.04-.26-.06.28-1.23.99-2.56.71-3.65-.31-1.24-.67-2.28-.22-3.57.27-.79.16-1.71.22-2.56-.2-.03-.24-.05-.29-.04-2.16.21-3.05,1.57-3.81,3.5-.53,1.31-1.97,2.25-3.25,3.16.38-.54.7-1.16,1.17-1.63,1.04-1.02,1.58-2.22,1.82-3.66.08-.55.58-1.3,1.06-1.46,1.43-.49,2.45-1.32,3.24-2.59.55-.89,1.32-1.64,2.1-2.59-1.52-.36-2.63-.26-3.54,1-.47.64-1.22,1.07-1.91,1.52,1.9-3.07,2.09-3.22,5.24-4.31,1.1-.37,1.91-.99,2.38-2.15.44-1.08,1.18-2.04,1.91-3.26-3.32,2.26-6.54,4.25-9.49,6.57-1.31,1.03-2.41,2.39-3.09,4.15-.92,2.4-2.43,4.57-3.86,6.76.92-2.32,1.84-4.64,2.74-6.9-2.79,1.11-6.41.53-8.7,3.44,1.02-2.08,2.9-2.95,4.93-3.33,1.9-.34,3.37-1.28,4.69-2.52.51-.48.79-1.19,1.14-1.76-1.37-.31-2.58-.53-3.77-.86-1.12-.31-1.94-.03-2.72.83-.46.51-1.16.79-1.75,1.17-1.01.65-2.02,1.3-3.02,1.95-.73.46-1.46.93-2.22,1.31,1.88-2.37,4.95-3.4,6.45-6.2-3.16-.04-5.91.9-8.57,3.04,2.55-3.5,6.98-4.92,10.67-3.78,1.4.43,2.89.65,4.35.8,1.5.17,2.55-.69,3.33-2.7-1.36-.07-2.79-.54-3.82-.1-1.81.78-3.48.72-5.3.39-1.46-.28-2.95-.4-4.49-.79,1.1-.11,2.23-.42,3.31-.29,2.01.25,3.87.39,5.79-.7,1.04-.6,2.51-.58,3.79-.59.87-.01,1.59-.21,2.18-.75-1.7,0-3.39,0-5.09,0-.03,0-.07.01-.1.01-.72.11-1.54.38-2.17.16-.19-.07-.37-.13-.56-.17h-5.13c-1.09.25-2.15.82-3.13,1.39-1.08.62-2.01,1.49-3.02,2.23-.22.16-.49.3-.75.33-1.26.16-2.53.27-3.61.38.6-.67,1.43-1.39,2.87-1.34.66.02,1.42-.62,2.01-1.1.7-.58,1.36-1.2,2.08-1.89h-.81c.29,0,.57-.03.86-.05.35-.34.72-.69,1.11-1.06-.74.19-1.31.29-1.84.48-1.7.61-3.33.68-4.95-.28-.43-.25-1.05-.2-1.58-.21-1.22-.03-2.43,0-3.63-.22.9-.08,1.81-.08,2.69-.26,1.3-.26,2.49-.68,3.84.16.5.32,1.6-.11,2.34-.43,1.74-.73,3.46-.79,5.31-.41,1.12.23,2.2.38,3.24.45,1.02-.54,1.96-1.22,2.78-2.05,1.77-1.79,2.84-4.19,3.3-6.66,1.02-5.49-.87-11.18-3.78-15.95-2.91-4.77-6.81-8.84-10.34-13.17-5.34-6.58-9.86-13.83-13.41-21.53.94-.93,2.59-.67,3.61.18,1.02.84,1.57,2.11,2.13,3.31,3.57,7.61,9,14.34,15.68,19.44,3.01,2.31,6.36,4.31,10.08,5.05,1.11.22,2.72-.08,2.67-1.22-.01-.38-.25-.72-.48-1.03-.96-1.31-1.99-2.57-3.08-3.78-1.09-1.21-2.27-2.42-2.74-3.97-.47-1.56.07-3.56,1.59-4.12,1.93,2.07,3.85,4.15,5.78,6.22.97,1.04,1.93,2.08,2.9,3.12.85.92,2.09,1.89,2.65,3.01,2.6,5.23,2.94,11.89,1.59,17.5-.45,1.87-1.09,3.7-1.54,5.57-.57,2.42-.8,4.9-.89,7.39,1.33.15,2.69.11,4.03.11.74.01,1.49.01,2.23,0,1.55.4,3.16.63,4.84.67.55.01,1.06-.05,1.53-.17-.08-2.69-.3-5.38-.91-8-.45-1.87-1.09-3.7-1.54-5.57-1.35-5.61-1.01-12.27,1.59-17.5.56-1.12,1.8-2.09,2.65-3.01.97-1.04,1.93-2.08,2.9-3.12,1.93-2.07,3.85-4.15,5.78-6.22,1.52.56,2.06,2.56,1.59,4.12-.47,1.55-1.65,2.76-2.74,3.97-1.09,1.21-2.12,2.47-3.08,3.78-.23.31-.47.65-.48,1.03-.05,1.14,1.56,1.44,2.67,1.22,3.72-.74,7.07-2.74,10.08-5.05,6.68-5.1,12.11-11.83,15.68-19.44.56-1.2,1.11-2.47,2.13-3.31,1.01-.85,2.67-1.11,3.61-.18-3.55,7.7-8.07,14.95-13.41,21.53-3.53,4.33-7.43,8.4-10.34,13.17-2.92,4.77-4.8,10.46-3.78,15.95.46,2.47,1.53,4.87,3.29,6.66.76.77,1.63,1.41,2.57,1.93h.01c1.29-.04,2.58-.2,3.84-.36,1.85-.24,3.6-.38,5.29.48,1.16.59,2.26.8,3.4-.03.24-.17.63-.24.91-.19Z"/>
    </g>
  </g>
</svg>